<?xml version="1.0" encoding="UTF-8" standalone="no"?>
<!DOCTYPE svg  PUBLIC '-//W3C//DTD SVG 1.1//EN'  'http://www.w3.org/Graphics/SVG/1.1/DTD/svg11.dtd'>
<svg xmlns="http://www.w3.org/2000/svg">
<defs>
<font id="CFAstyStd-Book" horiz-adv-x="632">
<font-face underline-position="-113" font-weight="400" descent="-200" panose-1="0 0 5 3 3 0 0 2 0 4" units-per-em="1000" unicode-range="U+0020-25CA" bbox="-166 -212 1119 903" x-height="501" underline-thickness="20" font-family="CFAstyStd" ascent="800" cap-height="700"/>
<missing-glyph horiz-adv-x="1000"/>
<glyph glyph-name=".notdef" horiz-adv-x="1000"/>
<glyph glyph-name=".null" horiz-adv-x="0"/>
<glyph glyph-name="nonmarkingreturn" horiz-adv-x="333"/>
<glyph glyph-name="space" horiz-adv-x="296" unicode=" "/>
<glyph glyph-name="exclam" horiz-adv-x="292" unicode="!" d="M208 58q0 -25 -18.5 -43.5t-43.5 -18.5q-26 0 -44 18t-18 44q0 25 18.5 43t43.5 18t43.5 -18t18.5 -43zM188 211h-84v489h84v-489z"/>
<glyph glyph-name="quotedbl" horiz-adv-x="390" unicode='&quot;' d="M80 454v246h91v-48l-46 -198h-45zM250 454v246h91v-48l-46 -198h-45z"/>
<glyph glyph-name="numbersign" horiz-adv-x="601" unicode="#" d="M246 431l-20 -142h122l20 142h-122zM308 0l31 219h-123l-30 -219h-72l31 219h-96v70h105l20 142h-94v70h103l28 199h72l-28 -199h122l28 199h72l-28 -199h103v-70h-113l-19 -142h101v-70h-111l-30 -219h-72z"/>
<glyph glyph-name="dollar" horiz-adv-x="607" unicode="$" d="M151 519q0 -44 24.5 -70.5t98.5 -47.5v222q-56 -5 -89.5 -33t-33.5 -71zM464 189q0 41 -30 67.5t-106 47.5v-225q56 6 96 33.5t40 76.5zM328 773v-75q123 -10 195 -89l-57 -57q-51 58 -138 69v-233q32 -8 69 -20q152 -56 152 -173q0 -82 -63 -134t-158 -60v-91h-54v90 q-136 10 -221 105l59 58q28 -33 71.5 -57t90.5 -28v239q-107 27 -157.5 72.5t-50.5 126.5q0 76 59 127t149 56v74h54z"/>
<glyph glyph-name="percent" horiz-adv-x="812" unicode="%" d="M608 51q36 0 60.5 32.5t24.5 91.5q0 58 -24.5 91.5t-60.5 33.5q-37 0 -61.5 -33t-24.5 -92q0 -58 24.5 -91t61.5 -33zM608 -6q-67 0 -108.5 51t-41.5 130t42 130t108 51t107.5 -51t41.5 -130t-41.5 -130t-107.5 -51zM205 401q36 0 60 32.5t24 91.5t-24 92t-60 33 q-37 0 -61.5 -33t-24.5 -92q0 -58 24.5 -91t61.5 -33zM205 344q-67 0 -108.5 51t-41.5 130t42 130t108 51t107.5 -51t41.5 -130t-41.5 -130t-107.5 -51zM151 0l433 700h70l-431 -700h-72z"/>
<glyph glyph-name="ampersand" horiz-adv-x="712" unicode="&amp;" d="M419 557q0 40 -26.5 62.5t-69.5 22.5t-70 -27t-27 -69q0 -53 68 -127q125 70 125 138zM152 184q0 -53 38 -87t98 -34q100 0 173 80l-185 190q-61 -35 -92.5 -68t-31.5 -81zM557 148l144 -148h-101l-89 91q-93 -101 -226 -101q-96 0 -158.5 52t-62.5 138q0 111 164 203 q-84 89 -84 163t49.5 119t129.5 45q76 0 125 -41.5t49 -108.5q0 -56 -38 -99t-117 -91l164 -169q41 66 73 172h82q-48 -144 -104 -225z"/>
<glyph glyph-name="quotesingle" horiz-adv-x="220" unicode="&apos;" d="M80 454v246h91v-48l-46 -198h-45z"/>
<glyph glyph-name="parenleft" horiz-adv-x="343" unicode="(" d="M290 -114l-65 -41q-156 212 -156 440q0 223 156 440l65 -41q-138 -184 -138 -399q0 -213 138 -399z"/>
<glyph glyph-name="parenright" horiz-adv-x="343" unicode=")" d="M119 -155l-65 41q137 186 137 399q0 214 -137 399l65 41q155 -218 155 -440q0 -227 -155 -440z"/>
<glyph glyph-name="asterisk" horiz-adv-x="394" unicode="*" d="M198 515l-61 -97l-50 37l75 88l-113 27l19 59l107 -45l-9 116h62l-9 -116l107 44l19 -59l-112 -27l76 -88l-51 -37z"/>
<glyph glyph-name="plus" horiz-adv-x="643" unicode="+" d="M584 261h-222v-221h-81v221h-222v79h222v222h81v-222h222v-79z"/>
<glyph glyph-name="comma" horiz-adv-x="252" unicode="," d="M54 -119l38 126q-26 20 -26 51q0 25 18.5 43t43.5 18q27 0 43.5 -17t16.5 -42q0 -21 -11 -39l-79 -140h-44z"/>
<glyph glyph-name="hyphen" horiz-adv-x="381" unicode="-" d="M59 257v88h263v-88h-263z"/>
<glyph glyph-name="period" horiz-adv-x="252" unicode="." d="M188 58q0 -25 -18.5 -43.5t-43.5 -18.5q-26 0 -44 18t-18 44q0 25 18.5 43t43.5 18t43.5 -18t18.5 -43z"/>
<glyph glyph-name="slash" horiz-adv-x="430" unicode="/" d="M-24 -160l396 940h83l-397 -940h-82z"/>
<glyph glyph-name="zero" horiz-adv-x="640" unicode="0" d="M320 68q80 0 127.5 81t47.5 201q0 119 -47.5 200.5t-127.5 81.5t-127 -81.5t-47 -200.5q0 -118 47 -200t127 -82zM320 -10q-119 0 -190.5 101t-71.5 259q0 157 72 258.5t190 101.5q119 0 190.5 -101.5t71.5 -258.5q0 -158 -72 -259t-190 -101z"/>
<glyph glyph-name="one" horiz-adv-x="389" unicode="1" d="M196 613l-120 -65l-33 66l161 86h76v-700h-84v613z"/>
<glyph glyph-name="two" horiz-adv-x="563" unicode="2" d="M45 75l234 225q72 70 104 114.5t32 89.5q0 60 -36 94t-99 34q-58 0 -95.5 -32t-47.5 -91l-86 13q12 82 74 135t157 53q102 0 161.5 -54.5t59.5 -147.5q0 -64 -41.5 -122t-127.5 -139l-177 -169h349v-78h-461v75z"/>
<glyph glyph-name="three" horiz-adv-x="580" unicode="3" d="M524 195q0 -89 -69.5 -147t-177.5 -58q-100 0 -161.5 52.5t-76.5 128.5l87 17q11 -56 51.5 -88t101.5 -32q69 0 113.5 36.5t44.5 95.5t-45.5 93t-129.5 34h-49v75h50q61 0 107 32t46 87q0 52 -36 81.5t-100 29.5q-106 0 -140 -106l-87 16q52 168 228 168 q97 0 159.5 -49.5t62.5 -131.5q0 -60 -33.5 -100.5t-86.5 -57.5q64 -21 102.5 -66t38.5 -110z"/>
<glyph glyph-name="four" horiz-adv-x="605" unicode="4" d="M372 236v347l-249 -347h249zM558 164h-102v-164h-84v164h-335v74l331 462h88v-464h102v-72z"/>
<glyph glyph-name="five" horiz-adv-x="576" unicode="5" d="M49 145l82 26q15 -48 54.5 -75.5t94.5 -27.5q69 0 110 46t41 112q0 76 -40.5 114.5t-116.5 38.5q-44 0 -74.5 -9.5t-83.5 -35.5l-40 25l16 341h395v-77h-318l-9 -195q62 27 127 27q102 0 166.5 -61t64.5 -168q0 -99 -66 -167.5t-174 -68.5q-90 0 -148.5 43.5t-80.5 111.5 z"/>
<glyph glyph-name="six" horiz-adv-x="614" unicode="6" d="M473 221q0 74 -44.5 113.5t-119.5 39.5q-80 0 -123.5 -43.5t-43.5 -108.5q0 -72 45 -114t120 -42t120.5 41.5t45.5 113.5zM308 -10q-113 0 -182.5 67.5t-69.5 160.5q0 92 56 185l178 297h97l-167 -276l1 -1q48 25 103 25q100 0 167 -62.5t67 -164.5q0 -96 -68.5 -163.5 t-181.5 -67.5z"/>
<glyph glyph-name="seven" horiz-adv-x="518" unicode="7" d="M488 627l-291 -627h-95l289 622h-362v78h459v-73z"/>
<glyph glyph-name="eight" horiz-adv-x="617" unicode="8" d="M308 67q78 0 122.5 35.5t44.5 98.5q0 57 -44 92t-123 35t-122.5 -34.5t-43.5 -92.5q0 -63 44 -98.5t122 -35.5zM308 400q60 0 102.5 29.5t42.5 87.5q0 57 -38.5 86.5t-106.5 29.5q-67 0 -105.5 -29.5t-38.5 -86.5t42.5 -87t101.5 -30zM308 -10q-111 0 -181 53.5 t-70 152.5q0 66 38.5 112.5t96.5 60.5v2q-49 15 -81.5 55t-32.5 95q0 91 66 140t164 49q99 0 165 -49t66 -140q0 -55 -32 -94.5t-81 -55.5v-2q58 -14 96 -60.5t38 -112.5q0 -99 -70 -152.5t-182 -53.5z"/>
<glyph glyph-name="nine" horiz-adv-x="614" unicode="9" d="M142 479q0 -74 44.5 -113.5t119.5 -39.5q79 0 122.5 43.5t43.5 108.5q0 72 -44.5 114t-119.5 42q-76 0 -121 -41t-45 -114zM228 0l166 276l-1 1q-48 -25 -103 -25q-100 0 -167 62.5t-67 164.5q0 96 69 163.5t182 67.5t182 -67t69 -160q0 -91 -56 -186l-178 -297h-96z"/>
<glyph glyph-name="colon" horiz-adv-x="252" unicode=":" d="M188 450q0 -25 -18.5 -43.5t-43.5 -18.5q-26 0 -44 18t-18 44q0 25 18.5 43t43.5 18t43.5 -18t18.5 -43zM188 58q0 -25 -18.5 -43.5t-43.5 -18.5q-26 0 -44 18t-18 44q0 25 18.5 43t43.5 18t43.5 -18t18.5 -43z"/>
<glyph glyph-name="semicolon" horiz-adv-x="252" unicode=";" d="M52 -119l39 126q-27 20 -27 51q0 25 18.5 43t43.5 18q28 0 44 -17t16 -42q0 -21 -11 -39l-79 -140h-44zM188 450q0 -25 -18.5 -43.5t-43.5 -18.5q-26 0 -44 18t-18 44q0 25 18.5 43t43.5 18t43.5 -18t18.5 -43z"/>
<glyph glyph-name="less" horiz-adv-x="674" unicode="&lt;" d="M596 40l-532 216v88l532 216v-84l-441 -176l441 -176v-84z"/>
<glyph glyph-name="equal" horiz-adv-x="643" unicode="=" d="M79 174v80h485v-80h-485zM79 344v80h485v-80h-485z"/>
<glyph glyph-name="greater" horiz-adv-x="645" unicode="&gt;" d="M597 256l-532 -216v84l441 176l-441 176v83l532 -215v-88z"/>
<glyph glyph-name="question" horiz-adv-x="513" unicode="?" d="M309 58q0 -25 -18.5 -43.5t-43.5 -18.5t-43.5 18t-18.5 44q0 25 18.5 43t43.5 18t43.5 -18t18.5 -43zM116 521l-77 22q16 77 74.5 122.5t141.5 45.5q90 0 151.5 -46t61.5 -134q0 -75 -72 -139l-66 -59q-27 -23 -35 -46.5t-8 -65.5v-31h-83v37q0 57 11 89t47 62l77 66 q43 36 43 84q0 52 -34.5 78.5t-92.5 26.5q-110 0 -139 -112z"/>
<glyph glyph-name="at" horiz-adv-x="994" unicode="@" d="M730 68q-102 0 -129 82q-57 -72 -162 -72q-77 0 -127.5 50.5t-50.5 132.5q0 101 66 175.5t178 74.5q47 0 87.5 -21.5t60.5 -57.5l17 69h74l-68 -271q-7 -32 -7 -49q0 -32 18 -50.5t52 -18.5q70 0 109 65.5t39 146.5q0 136 -107 239t-267 103q-162 0 -284 -119t-122 -289 q0 -161 107.5 -269.5t276.5 -108.5q129 0 246 67l21 -36q-126 -75 -268 -75q-186 0 -308.5 122.5t-122.5 298.5q0 86 35 168t94.5 145t144.5 101.5t179 38.5q118 0 216 -53.5t152.5 -141.5t54.5 -189q0 -99 -53.5 -178.5t-151.5 -79.5zM627 337q0 52 -36 82t-86 30 q-76 0 -122.5 -54t-46.5 -130q0 -54 28.5 -90.5t83.5 -36.5q135 0 173 153q6 25 6 46z"/>
<glyph glyph-name="A" horiz-adv-x="762" unicode="A" d="M381 600l-149 -345h297l-146 345h-2zM122 0h-89l311 703h80l306 -703h-94l-76 181h-359z"/>
<glyph glyph-name="B" horiz-adv-x="674" unicode="B" d="M466 373v-2q66 -20 108 -63.5t42 -110.5q0 -90 -67 -143.5t-182 -53.5h-269v700h251q106 0 167 -45.5t61 -125.5q0 -108 -111 -156zM182 75h182q77 0 121 35.5t44 94.5q0 56 -46 89t-133 33h-168v-252zM182 401h153q72 0 113.5 29t41.5 88q0 51 -38 79t-110 28h-160v-224 z"/>
<glyph glyph-name="C" horiz-adv-x="702" unicode="C" d="M602 161l65 -49q-53 -60 -115.5 -91t-150.5 -31q-151 0 -246.5 103t-95.5 257q0 152 96.5 256t248.5 104q86 0 144 -25t109 -79l-66 -51q-41 41 -83 60t-105 19q-112 0 -184.5 -81.5t-72.5 -202.5t72.5 -202.5t184.5 -81.5q66 0 110 22.5t89 72.5z"/>
<glyph glyph-name="D" horiz-adv-x="760" unicode="D" d="M614 350q0 119 -80 196.5t-209 77.5h-143v-548h144q128 0 208 77.5t80 196.5zM701 350q0 -153 -105 -251.5t-270 -98.5h-228v700h228q165 0 270 -98.5t105 -251.5z"/>
<glyph glyph-name="E" horiz-adv-x="638" unicode="E" d="M98 0v700h471v-78h-387v-219h350v-77h-350v-248h397v-78h-481z"/>
<glyph glyph-name="F" horiz-adv-x="600" unicode="F" d="M565 622h-383v-232h317v-76h-317v-314h-84v700h467v-78z"/>
<glyph glyph-name="G" horiz-adv-x="765" unicode="G" d="M663 616l-55 -58q-86 76 -209 76q-110 0 -181.5 -82.5t-71.5 -201.5q0 -125 71 -204.5t192 -79.5q108 0 186 47v193h-174v75h258v-312q-123 -79 -273 -79q-161 0 -254 102t-93 258q0 150 94.5 255t248.5 105q85 0 145 -23t116 -71z"/>
<glyph glyph-name="H" horiz-adv-x="760" unicode="H" d="M98 0v700h84v-297h377v297h84v-700h-84v326h-377v-326h-84z"/>
<glyph glyph-name="I" horiz-adv-x="280" unicode="I" d="M98 0v700h84v-700h-84z"/>
<glyph glyph-name="J" horiz-adv-x="506" unicode="J" d="M33 128l80 24q32 -85 108 -85q118 0 118 165v468h87v-467q0 -109 -50.5 -176t-154.5 -67q-138 0 -188 138z"/>
<glyph glyph-name="K" horiz-adv-x="701" unicode="K" d="M182 700v-370l355 370h109l-297 -308l319 -392h-108l-269 330l-109 -112v-218h-84v700h84z"/>
<glyph glyph-name="L" horiz-adv-x="579" unicode="L" d="M98 0v700h84v-620h362v-80h-446z"/>
<glyph glyph-name="M" horiz-adv-x="868" unicode="M" d="M683 561l-243 -333h-9l-248 333h-2v-561h-83v700h84l253 -340l246 340h89v-700h-85v561h-2z"/>
<glyph glyph-name="N" horiz-adv-x="800" unicode="N" d="M617 150h3v550h82v-700h-71l-447 561h-2v-561h-84v700h81z"/>
<glyph glyph-name="O" horiz-adv-x="838" unicode="O" d="M420 68q117 0 194.5 81.5t77.5 200.5q0 118 -78.5 200t-195.5 82t-194.5 -81.5t-77.5 -200.5q0 -117 78.5 -199.5t195.5 -82.5zM418 -10q-156 0 -257.5 105t-101.5 255q0 149 101.5 254.5t259.5 105.5q153 0 256 -105.5t103 -254.5t-101.5 -254.5t-259.5 -105.5z"/>
<glyph glyph-name="P" d="M487 499q0 126 -168 126h-137v-254h138q167 0 167 128zM575 498q0 -99 -68 -150t-184 -51h-141v-297h-84v700h227q119 0 184.5 -51.5t65.5 -150.5z" unicode="P"/>
<glyph glyph-name="Q" horiz-adv-x="855" unicode="Q" d="M416 78q119 0 194 80.5t75 195.5q0 117 -77 197.5t-194 80.5q-116 0 -192 -80.5t-76 -197.5q0 -115 77 -195.5t193 -80.5zM773 354q0 -90 -43 -161.5t-117 -114.5v-2h190v-76h-389q-153 0 -254 103t-101 251t100.5 252t256.5 104q151 0 254 -104.5t103 -251.5z"/>
<glyph glyph-name="R" horiz-adv-x="658" unicode="R" d="M487 499q0 126 -168 126h-137v-254h138q167 0 167 128zM500 0l-184 297h-134v-297h-84v700h227q119 0 184.5 -51.5t65.5 -150.5q0 -81 -46 -129t-126 -65l190 -304h-93z"/>
<glyph glyph-name="S" horiz-adv-x="615" unicode="S" d="M553 189q0 -89 -74 -144t-180 -55q-70 0 -133.5 27.5t-109.5 77.5l61 60q33 -37 81 -62t100 -25q63 0 115.5 30.5t52.5 87.5q0 46 -37 74.5t-131 51.5q-119 28 -173.5 75t-54.5 133q0 81 65.5 135.5t162.5 54.5q145 0 229 -91l-60 -59q-27 33 -73.5 52.5t-94.5 19.5 q-63 0 -102.5 -31t-39.5 -79q0 -51 34 -80.5t138 -52.5q224 -52 224 -200z"/>
<glyph glyph-name="T" horiz-adv-x="601" unicode="T" d="M567 622h-224v-622h-84v622h-225v78h533v-78z"/>
<glyph glyph-name="U" horiz-adv-x="728" unicode="U" d="M640 700v-405q0 -146 -75.5 -225.5t-200.5 -79.5q-126 0 -201 79t-75 225v406h85v-404q0 -109 50.5 -168.5t141.5 -59.5t141.5 60t50.5 168v404h83z"/>
<glyph glyph-name="V" horiz-adv-x="734" unicode="V" d="M368 104l246 596h88l-298 -704h-80l-291 704h91l242 -596h2z"/>
<glyph glyph-name="W" horiz-adv-x="1052" unicode="W" d="M1013 700l-233 -705h-76l-178 560h-2l-176 -560h-76l-233 705h89l182 -569h2l179 571h73l177 -572h2l182 570h88z"/>
<glyph glyph-name="X" horiz-adv-x="685" unicode="X" d="M636 700l-243 -339l258 -361h-103l-207 293l-208 -293h-99l257 359l-243 341h103l192 -272l193 272h100z"/>
<glyph glyph-name="Y" horiz-adv-x="674" unicode="Y" d="M339 378l209 322h98l-267 -403v-297h-84v296l-267 404h101l208 -322h2z"/>
<glyph glyph-name="Z" horiz-adv-x="652" unicode="Z" d="M593 0h-534v72l422 552h-409v76h516v-71l-422 -553h427v-76z"/>
<glyph glyph-name="bracketleft" horiz-adv-x="343" unicode="[" d="M98 -160v890h186v-66h-106v-758h106v-66h-186z"/>
<glyph glyph-name="backslash" horiz-adv-x="430" unicode="\" d="M58 780l397 -940h-83l-396 940h82z"/>
<glyph glyph-name="bracketright" horiz-adv-x="343" unicode="]" d="M245 730v-890h-186v66h105v758h-105v66h186z"/>
<glyph glyph-name="asciicircum" horiz-adv-x="473" unicode="^" d="M50 441l151 259h72l150 -259h-73l-114 200l-115 -200h-71z"/>
<glyph glyph-name="underscore" horiz-adv-x="537" unicode="_" d="M-1 -152v55h539v-55h-539z"/>
<glyph glyph-name="grave" horiz-adv-x="410" unicode="`" d="M201 739l91 -148h-62l-112 109z"/>
<glyph glyph-name="a" horiz-adv-x="544" unicode="a" d="M391 185v43q-68 14 -129 14q-59 0 -97 -26.5t-38 -72.5q0 -45 29 -67.5t79 -22.5q57 0 106.5 42t49.5 90zM256 305q78 0 135 -13v17q0 62 -36.5 96t-97.5 34q-72 0 -141 -50l-44 58q86 64 182 64q99 0 158 -48.5t59 -147.5v-315h-80v73h-3q-66 -84 -175 -84 q-75 0 -121.5 39t-46.5 115t61 119t150 43z"/>
<glyph glyph-name="b" horiz-adv-x="643" unicode="b" d="M334 62q73 0 122.5 51t49.5 138q0 86 -49.5 136.5t-122.5 50.5q-71 0 -123 -51t-52 -137q0 -85 52 -136.5t123 -51.5zM344 -10q-114 0 -177 84h-3v-74h-81v750h81v-328h3q70 89 177 89q97 0 171.5 -71t74.5 -189q0 -119 -74.5 -190t-171.5 -71z"/>
<glyph glyph-name="c" horiz-adv-x="554" unicode="c" d="M463 135l53 -50q-45 -47 -93 -71t-114 -24q-109 0 -182 75.5t-73 185.5q0 109 73 184.5t182 75.5q120 0 203 -87l-57 -52q-62 67 -145 67q-74 0 -123.5 -54t-49.5 -134q0 -81 49 -135t124 -54q85 0 153 73z"/>
<glyph glyph-name="d" horiz-adv-x="643" unicode="d" d="M309 62q71 0 123 51.5t52 136.5q0 86 -52 137t-123 51q-72 0 -122 -50.5t-50 -136.5q0 -87 49.5 -138t122.5 -51zM299 -10q-97 0 -171 71t-74 190q0 118 74 189t171 71q109 0 177 -87h3v326h81v-750h-81v76h-3q-65 -86 -177 -86z"/>
<glyph glyph-name="e" horiz-adv-x="579" unicode="e" d="M138 282h309q-6 70 -46 115.5t-108 45.5q-62 0 -104.5 -45t-50.5 -116zM303 -10q-106 0 -177.5 72.5t-71.5 188.5q0 110 68.5 185t172.5 75q109 0 172 -75.5t63 -189.5q0 -20 -1 -28h-391q7 -74 53.5 -115.5t113.5 -41.5q89 0 157 73l52 -49q-85 -95 -211 -95z"/>
<glyph glyph-name="f" horiz-adv-x="366" unicode="f" d="M108 0v431h-69v70h69v89q0 75 39.5 122.5t114.5 47.5q43 0 85 -15l-8 -69q-36 13 -65 13q-43 0 -63.5 -25t-20.5 -79v-84h136v-70h-136v-431h-82z"/>
<glyph glyph-name="g" horiz-adv-x="644" unicode="g" d="M305 92q71 0 125 50.5t54 123.5q0 72 -54 122t-125 50t-119 -49t-48 -124t49 -124t118 -49zM304 -195q-130 0 -231 73l39 61q84 -63 191 -63q83 0 130 44.5t47 128.5v61h-3q-67 -91 -182 -91q-95 0 -168 70t-73 176t74 176t168 70q116 0 181 -88h3v78h81v-449 q0 -116 -68.5 -181.5t-188.5 -65.5z"/>
<glyph glyph-name="h" horiz-adv-x="598" unicode="h" d="M83 0v750h81v-323h3q53 84 163 84q86 0 136 -56t50 -148v-307h-81v291q0 69 -33.5 107.5t-96.5 38.5q-61 0 -101 -46t-40 -115v-276h-81z"/>
<glyph glyph-name="i" horiz-adv-x="263" unicode="i" d="M192 673q0 -25 -18 -42.5t-42 -17.5q-25 0 -42.5 17.5t-17.5 42.5q0 24 17.5 41.5t42.5 17.5q24 0 42 -17.5t18 -41.5zM91 0v501h81v-501h-81z"/>
<glyph glyph-name="j" horiz-adv-x="263" unicode="j" d="M192 673q0 -25 -18 -42.5t-42 -17.5q-25 0 -42.5 17.5t-17.5 42.5q0 24 17.5 41.5t42.5 17.5q24 0 42 -17.5t18 -41.5zM38 -195q-35 0 -59 6l11 68q13 -3 37 -3q28 0 46 20t18 55v550h81v-552q0 -68 -37 -106t-97 -38z"/>
<glyph glyph-name="k" horiz-adv-x="549" unicode="k" d="M164 750v-495l256 246h101l-212 -202l221 -299h-95l-182 245l-89 -86v-159h-81v750h81z"/>
<glyph glyph-name="l" horiz-adv-x="247" unicode="l" d="M83 0v750h81v-750h-81z"/>
<glyph glyph-name="m" horiz-adv-x="908" unicode="m" d="M83 0v501h81v-74h3q55 84 150 84q49 0 89 -24.5t61 -65.5h2q59 90 170 90q85 0 136 -53.5t51 -146.5v-311h-81v293q0 70 -32 107t-89 37t-93 -39.5t-36 -108.5v-289h-80v294q0 68 -31.5 105.5t-89.5 37.5q-56 0 -93 -46t-37 -114v-277h-81z"/>
<glyph glyph-name="n" horiz-adv-x="598" unicode="n" d="M83 0v501h81v-74h3q53 84 163 84q86 0 136 -56t50 -148v-307h-81v291q0 69 -33.5 107.5t-96.5 38.5q-61 0 -101 -46t-40 -115v-276h-81z"/>
<glyph glyph-name="o" d="M316 62q78 0 128.5 54.5t50.5 134.5q0 79 -51.5 133.5t-127.5 54.5q-78 0 -128.5 -54.5t-50.5 -133.5t51 -134t128 -55zM316 -10q-112 0 -187 75.5t-75 185.5t75 185t187 75t187.5 -75.5t75.5 -184.5q0 -110 -75.5 -185.5t-187.5 -75.5z" unicode="o"/>
<glyph glyph-name="p" horiz-adv-x="643" unicode="p" d="M334 62q73 0 122.5 51t49.5 138q0 86 -49.5 136.5t-122.5 50.5q-71 0 -123 -51t-52 -137q0 -85 52 -136.5t123 -51.5zM344 -10q-114 0 -177 84h-3v-264h-81v691h81v-79h3q70 89 177 89q97 0 171.5 -71t74.5 -189q0 -119 -74.5 -190t-171.5 -71z"/>
<glyph glyph-name="q" horiz-adv-x="643" unicode="q" d="M309 62q71 0 123 51.5t52 136.5q0 86 -52 137t-123 51q-72 0 -122 -50.5t-50 -136.5q0 -87 49.5 -138t122.5 -51zM299 -10q-97 0 -171 71t-74 190q0 118 74 189t171 71q109 0 177 -87h3v77h81v-691h-81v266h-3q-65 -86 -177 -86z"/>
<glyph glyph-name="r" horiz-adv-x="380" unicode="r" d="M167 427q53 84 156 84q15 0 33 -3l-6 -78q-10 2 -33 2q-153 0 -153 -190v-242h-81v501h81v-74h3z"/>
<glyph glyph-name="s" horiz-adv-x="473" unicode="s" d="M231 -10q-97 0 -186 82l47 56q73 -70 142 -70q101 0 101 71q0 18 -7.5 31.5t-25 24.5t-33 18t-45.5 18q-34 12 -56.5 22.5t-48 28.5t-38.5 43.5t-13 57.5q0 65 51 101.5t128 36.5q95 0 164 -59l-48 -53q-49 44 -116 44q-42 0 -69.5 -17.5t-27.5 -47.5q0 -17 6.5 -29.5 t23 -23t25 -15t34.5 -14t28 -10.5q72 -26 112 -59t40 -93q0 -65 -52.5 -104.5t-135.5 -39.5z"/>
<glyph glyph-name="t" horiz-adv-x="388" unicode="t" d="M262 -10q-65 0 -104 37t-39 113v291h-81v70h81v123h82v-123h152v-70h-152v-287q0 -82 82 -82q31 0 73 18v-69q-41 -21 -94 -21z"/>
<glyph glyph-name="u" horiz-adv-x="589" unicode="u" d="M506 501v-501h-81v74h-3q-53 -84 -163 -84q-86 0 -136 56.5t-50 147.5v307h81v-291q0 -69 33.5 -107.5t96.5 -38.5q61 0 101 46t40 115v276h81z"/>
<glyph glyph-name="v" horiz-adv-x="561" unicode="v" d="M243 -4l-214 505h87l164 -406h1l165 406h86l-215 -505h-74z"/>
<glyph glyph-name="w" horiz-adv-x="816" unicode="w" d="M208 -4l-174 505h80l133 -389h2l130 389h67l134 -389h3l126 389h79l-168 -505h-75l-132 386h-2l-129 -386h-74z"/>
<glyph glyph-name="x" horiz-adv-x="543" unicode="x" d="M421 0l-149 200h-2l-151 -200h-90l195 256l-187 245h93l141 -187h2l142 187h92l-189 -243l197 -258h-94z"/>
<glyph glyph-name="y" horiz-adv-x="566" unicode="y" d="M452 501h85l-213 -551q-29 -79 -69.5 -112t-102.5 -33q-57 0 -111 26l21 64q52 -19 85 -19q34 0 58 21t42 69l18 48l-232 487h87l183 -389h2z"/>
<glyph glyph-name="z" horiz-adv-x="504" unicode="z" d="M45 0v58l303 373h-294v70h400v-60l-302 -372h307v-69h-414z"/>
<glyph glyph-name="braceleft" horiz-adv-x="378" unicode="{" d="M319 -160h-68q-44 0 -75 34t-31 107v159q0 50 -26 80.5t-60 30.5v66q34 0 60 30t26 81v180q0 60 31.5 91t74.5 31h68v-65h-45q-52 0 -52 -81v-169q0 -60 -28 -91.5t-56 -37.5v-3q28 -3 56 -34t28 -96v-169q0 -79 52 -79h45v-65z"/>
<glyph glyph-name="bar" horiz-adv-x="319" unicode="|" d="M118 -100v880h83v-880h-83z"/>
<glyph glyph-name="braceright" horiz-adv-x="378" unicode="}" d="M127 -160h-68v65h45q52 0 52 79v169q0 65 28.5 96t56.5 34v3q-28 6 -56.5 37.5t-28.5 91.5v169q0 81 -52 81h-45v65h68q44 0 75.5 -31t31.5 -91v-180q0 -51 25.5 -81t59.5 -30v-66q-34 0 -59.5 -30t-25.5 -81v-159q0 -73 -31 -107t-76 -34z"/>
<glyph glyph-name="asciitilde" horiz-adv-x="434" unicode="~" d="M98 236l-40 43q27 80 89 80q25 0 72.5 -20.5t63.5 -20.5q20 0 31 10.5t23 37.5l40 -44q-27 -79 -89 -79q-25 0 -72.5 20.5t-63.5 20.5q-20 0 -30.5 -10.5t-23.5 -37.5z"/>
<glyph glyph-name="nbspace" horiz-adv-x="150" unicode=" "/>
<glyph glyph-name="exclamdown" horiz-adv-x="292" unicode="¡" d="M84 448q0 25 18.5 43.5t43.5 18.5q26 0 44 -18t18 -44q0 -25 -18.5 -43t-43.5 -18t-43.5 18t-18.5 43zM104 295h84v-489h-84v489z"/>
<glyph glyph-name="cent" horiz-adv-x="554" unicode="¢" d="M137 251q0 -73 40 -121.5t106 -57.5v355q-65 -9 -105.5 -56.5t-40.5 -119.5zM283 -114v114q-100 9 -164 79t-64 172q0 100 64 170.5t164 79.5v98h53v-97q106 -9 175 -79l-56 -51q-46 50 -119 56v-356q74 7 127 63l52 -50q-74 -77 -179 -86v-113h-53z"/>
<glyph glyph-name="sterling" horiz-adv-x="567" unicode="£" d="M537 645l-56 -59q-50 47 -118 47q-127 0 -127 -164v-74h185v-71h-185v-250h261v-74h-438v74h94v250h-94v71h94v87q0 104 54 166t158 62q100 0 172 -65z"/>
<glyph glyph-name="currency" horiz-adv-x="638" unicode="¤" d="M59 123l50 49l45 -45l-49 -49zM484 547l49 49l46 -45l-50 -49zM533 78l-49 49l45 45l50 -49zM109 502l-50 49l46 45l49 -49zM320 166q71 0 117.5 49.5t46.5 121.5t-47 121.5t-117 49.5t-116 -49.5t-46 -121.5t46.5 -121.5t115.5 -49.5zM320 102q-100 0 -168 68.5 t-68 166.5t68 166.5t168 68.5q102 0 169.5 -68t67.5 -167t-67.5 -167t-169.5 -68z"/>
<glyph glyph-name="yen" horiz-adv-x="676" unicode="¥" d="M91 245h205v51l-24 37h-181v59h142l-204 308h101l208 -322h2l209 322h98l-203 -308h141v-59h-181l-24 -36v-52h205v-59h-205v-186h-84v186h-205v59z"/>
<glyph glyph-name="brokenbar" horiz-adv-x="319" unicode="¦" d="M201 -100h-83v364h83v-364zM201 416h-83v364h83v-364z"/>
<glyph glyph-name="section" horiz-adv-x="559" unicode="§" d="M162 292q0 -47 42 -70q42 -24 89 -24q49 0 83.5 23t34.5 60q0 48 -41 70q-42 23 -90 23q-49 0 -83.5 -23t-34.5 -59zM276 -138q-100 0 -197 84l50 52q68 -68 147 -68q53 0 86.5 20.5t33.5 61.5q0 37 -36 60.5t-104 46.5q-38 13 -61.5 24t-53.5 31t-45 49t-15 67 q0 48 32 83.5t82 49.5q-101 51 -101 139q0 70 53.5 109t137.5 39q104 0 184 -66l-50 -54q-57 52 -132 52q-52 0 -81.5 -22.5t-29.5 -59.5q0 -18 10.5 -34.5t22 -26t36.5 -21t35 -15t36 -12.5q32 -11 52 -19t46 -23t40.5 -31t25 -41t10.5 -56q0 -46 -32 -82t-83 -51 q103 -53 103 -137q0 -70 -55.5 -109.5t-146.5 -39.5z"/>
<glyph glyph-name="dieresis" horiz-adv-x="410" unicode="¨" d="M174 645q0 -24 -18 -41.5t-42 -17.5t-41.5 17.5t-17.5 41.5q0 23 17.5 41t41.5 18t42 -17.5t18 -41.5zM355 645q0 -24 -18 -41.5t-41 -17.5q-25 0 -42 17.5t-17 41.5q0 23 17.5 41t41.5 18q23 0 41 -17.5t18 -41.5z"/>
<glyph glyph-name="copyright" horiz-adv-x="836" unicode="©" d="M536 274l39 -35q-33 -35 -67.5 -54.5t-85.5 -19.5q-84 0 -138.5 55t-54.5 136q0 80 55 135.5t139 55.5q86 0 144 -61l-41 -38q-39 47 -104 47q-60 0 -97 -38t-37 -101q0 -62 37 -100.5t97 -38.5q38 0 62.5 13.5t51.5 43.5zM417 35q132 0 222.5 93t90.5 222t-90 222 t-221 93q-132 0 -222.5 -93t-90.5 -222t90 -222t221 -93zM417 -10q-150 0 -254 105.5t-104 254.5q0 147 105 253.5t255 106.5t254 -105.5t104 -254.5q0 -147 -105 -253.5t-255 -106.5z"/>
<glyph glyph-name="ordfeminine" horiz-adv-x="418" unicode="ª" d="M295 480v26q-45 10 -89 10q-42 0 -67.5 -17t-25.5 -48q0 -59 74 -59q39 0 73.5 27.5t34.5 60.5zM202 565q43 0 93 -10v8q0 43 -25 64t-68 21q-54 0 -104 -35l-30 46q65 44 134 44q68 0 111.5 -33.5t43.5 -101.5v-218h-62v48h-3q-41 -54 -121 -54q-52 0 -87.5 27.5 t-35.5 78.5q0 53 46 84t108 31z"/>
<glyph glyph-name="guillemotleft" horiz-adv-x="528" unicode="«" d="M255 87l-59 -39l-151 213l150 211l59 -38l-119 -173zM473 87l-58 -39l-152 213l151 211l59 -38l-119 -173z"/>
<glyph glyph-name="logicalnot" horiz-adv-x="596" unicode="¬" d="M458 152v131h-399v77h478v-208h-79z"/>
<glyph glyph-name="uni00AD" horiz-adv-x="381" unicode="­" d="M59 257v88h263v-88h-263z"/>
<glyph glyph-name="registered" horiz-adv-x="836" unicode="®" d="M511 439q0 57 -86 57h-85v-119h86q42 0 63.5 17t21.5 45zM517 174l-104 152h-73v-152h-58v372h146q65 0 104 -28t39 -79q0 -86 -98 -106l109 -159h-65zM417 35q132 0 222.5 93t90.5 222t-90 222t-221 93q-132 0 -222.5 -93t-90.5 -222t90 -222t221 -93zM417 -10 q-150 0 -254 105.5t-104 254.5q0 147 105 253.5t255 106.5t254 -105.5t104 -254.5q0 -147 -105 -253.5t-255 -106.5z"/>
<glyph glyph-name="macron" horiz-adv-x="410" unicode="¯" d="M64 632v68h282v-68h-282z"/>
<glyph glyph-name="degree" horiz-adv-x="435" unicode="°" d="M310 559q0 38 -27 66.5t-65 28.5q-39 0 -66 -28.5t-27 -66.5t27 -66.5t66 -28.5q38 0 65 28.5t27 66.5zM372 559q0 -67 -45 -109.5t-109 -42.5t-109 42.5t-45 109.5q0 66 45 108.5t109 42.5t109 -42.5t45 -108.5z"/>
<glyph glyph-name="plusminus" horiz-adv-x="582" unicode="±" d="M518 0h-454v76h454v-76zM518 319h-187v-163h-80v163h-187v77h187v167h80v-167h187v-77z"/>
<glyph glyph-name="twosuperior" horiz-adv-x="347" unicode="²" d="M49 402l122 111q3 3 15.5 14.5t17.5 17t13.5 16t12 20.5t3.5 21q0 23 -15.5 35.5t-42.5 12.5q-49 0 -62 -57l-63 7q8 48 42 77t85 29q53 0 86.5 -28t33.5 -76q0 -32 -16 -57t-56 -61l-85 -78h157v-56h-248v52z"/>
<glyph glyph-name="threesuperior" horiz-adv-x="345" unicode="³" d="M296 449q0 -45 -36 -75t-95 -30q-53 0 -87 27t-43 69l63 11q16 -50 68 -50q29 0 47 13.5t18 38.5q0 55 -69 55h-38v51h35q64 0 64 45q0 21 -16 33.5t-38 12.5q-48 0 -61 -44l-64 11q26 89 127 89q48 0 82.5 -23.5t34.5 -67.5q0 -61 -65 -79q33 -8 53 -31t20 -56z"/>
<glyph glyph-name="acute" horiz-adv-x="410" unicode="´" d="M118 591l91 148l82 -39l-111 -109h-62z"/>
<glyph glyph-name="mu" horiz-adv-x="599" unicode="µ" d="M165 63h-1v-253h-81v691h81v-284q0 -67 33.5 -110.5t98.5 -43.5q60 0 99.5 44t39.5 114v280h81v-501h-81v75h-2q-20 -38 -55 -61.5t-82 -23.5q-94 0 -131 73z"/>
<glyph glyph-name="paragraph" d="M456 700h58v-700h-58v700zM334 0v267q-122 0 -198.5 56.5t-76.5 159.5q0 100 73 158.5t191 58.5h69v-700h-58z" unicode="¶"/>
<glyph glyph-name="periodcentered" horiz-adv-x="252" unicode="·" d="M188 301q0 -25 -18.5 -43.5t-43.5 -18.5q-26 0 -44 18.5t-18 43.5t18.5 43t43.5 18t43.5 -18t18.5 -43z"/>
<glyph glyph-name="cedilla" horiz-adv-x="410" unicode="¸" d="M317 -119q0 -48 -36.5 -70.5t-85.5 -22.5q-61 0 -106 21l19 39q36 -15 79 -15q62 0 62 42q0 41 -48 41q-21 0 -46 -9l-22 19l59 84h55l-44 -59h24q37 -1 63.5 -18.5t26.5 -51.5z"/>
<glyph glyph-name="onesuperior" horiz-adv-x="269" unicode="¹" d="M119 638l-69 -36l-25 48l96 50h60v-350h-62v288z"/>
<glyph glyph-name="ordmasculine" horiz-adv-x="467" unicode="º" d="M231 402q55 0 89.5 34.5t34.5 88.5q0 53 -35 87.5t-89 34.5t-88.5 -34.5t-34.5 -87.5t35 -88t88 -35zM231 346q-79 0 -133.5 50.5t-54.5 128.5t54.5 128t133.5 50q80 0 135 -50t55 -128t-55 -128.5t-135 -50.5z"/>
<glyph glyph-name="guillemotright" horiz-adv-x="528" unicode="»" d="M332 48l-59 39l120 174l-119 173l59 38l150 -211zM113 48l-58 39l119 174l-119 173l59 38l151 -211z"/>
<glyph glyph-name="onequarter" horiz-adv-x="711" unicode="¼" d="M106 -32l433 792l54 -28l-432 -792zM128 638l-69 -36l-25 48l96 50h60v-350h-62v288zM577 124v146l-109 -146h109zM681 68h-41v-68h-63v68h-176v57l168 225h71v-226h41v-56z"/>
<glyph glyph-name="onehalf" horiz-adv-x="757" unicode="½" d="M106 -32l433 792l54 -28l-432 -792zM128 638l-69 -36l-25 48l96 50h60v-350h-62v288zM458 52l122 111q3 3 15.5 14.5t17.5 17t13.5 16t12 20.5t3.5 21q0 23 -15.5 35.5t-42.5 12.5q-49 0 -62 -57l-63 7q8 48 42 77t85 29q53 0 86.5 -28t33.5 -76q0 -32 -16 -57t-56 -61 l-85 -78h157v-56h-248v52z"/>
<glyph glyph-name="threequarters" horiz-adv-x="763" unicode="¾" d="M157 -32l433 792l54 -28l-432 -792zM305 449q0 -45 -36 -75t-95 -30q-53 0 -87 27t-43 69l63 11q16 -50 68 -50q29 0 47 13.5t18 38.5q0 55 -69 55h-38v51h35q64 0 64 45q0 21 -16 33.5t-38 12.5q-48 0 -61 -44l-64 11q26 89 127 89q48 0 82.5 -23.5t34.5 -67.5 q0 -61 -65 -79q33 -8 53 -31t20 -56zM629 124v146l-109 -146h109zM733 68h-41v-68h-63v68h-176v57l168 225h71v-226h41v-56z"/>
<glyph glyph-name="questiondown" horiz-adv-x="513" unicode="¿" d="M204 454q0 25 18.5 43.5t43.5 18.5q26 0 44 -18t18 -44q0 -25 -18.5 -43t-43.5 -18t-43.5 18t-18.5 43zM395 -9l79 -22q-16 -76 -74.5 -122t-141.5 -46q-90 0 -151.5 46t-61.5 135q0 76 71 138l67 59q27 24 35 47.5t8 64.5v32h83v-38q0 -56 -11 -88.5t-47 -62.5l-77 -66 q-43 -35 -43 -84q0 -52 34.5 -78.5t92.5 -26.5q108 0 137 112z"/>
<glyph glyph-name="Agrave" horiz-adv-x="762" unicode="À" d="M321 902l91 -148h-62l-112 109zM381 600l-149 -345h297l-146 345h-2zM122 0h-89l311 703h80l306 -703h-94l-76 181h-359z"/>
<glyph glyph-name="Aacute" horiz-adv-x="762" unicode="Á" d="M352 755l91 148l82 -39l-111 -109h-62zM381 600l-149 -345h297l-146 345h-2zM122 0h-89l311 703h80l306 -703h-94l-76 181h-359z"/>
<glyph glyph-name="Acircumflex" horiz-adv-x="762" unicode="Â" d="M236 754l109 138h72l109 -138h-72l-74 91l-73 -91h-71zM381 600l-149 -345h297l-146 345h-2zM122 0h-89l311 703h80l306 -703h-94l-76 181h-359z"/>
<glyph glyph-name="Atilde" horiz-adv-x="762" unicode="Ã" d="M256 751l-39 44q28 80 89 80q25 0 72 -20.5t63 -20.5q20 0 31.5 10t23.5 38l40 -44q-15 -42 -36 -61t-54 -19q-24 0 -72 20.5t-63 20.5q-20 0 -31.5 -10t-23.5 -38zM381 600l-149 -345h297l-146 345h-2zM122 0h-89l311 703h80l306 -703h-94l-76 181h-359z"/>
<glyph glyph-name="Adieresis" horiz-adv-x="762" unicode="Ä" d="M352 813q0 -24 -18 -41.5t-42 -17.5t-41.5 17.5t-17.5 41.5q0 23 17.5 41t41.5 18t42 -17.5t18 -41.5zM533 813q0 -24 -18 -41.5t-41 -17.5q-25 0 -42 17.5t-17 41.5q0 23 17.5 41t41.5 18q23 0 41 -17.5t18 -41.5zM381 600l-149 -345h297l-146 345h-2zM122 0h-89 l311 703h80l306 -703h-94l-76 181h-359z"/>
<glyph glyph-name="Aring" horiz-adv-x="762" unicode="Å" d="M381 600l-149 -345h297l-146 345h-2zM122 0h-89l298 674q22 -11 50 -11q31 0 54 14l295 -677h-94l-76 181h-359zM435 677q50 29 50 85q0 42 -29 71.5t-75 29.5q-45 0 -74.5 -29t-29.5 -70q0 -63 54 -90l13 29h37q-25 0 -42.5 16.5t-17.5 42.5q0 28 17 44.5t43 16.5 t43 -16t17 -43q0 -28 -17.5 -44.5t-42.5 -16.5h43z"/>
<glyph glyph-name="AE" horiz-adv-x="1027" unicode="Æ" d="M481 622l-221 -370h245v370h-24zM505 0v178h-288l-106 -178h-88l419 700h516v-78h-369v-219h332v-77h-332v-248h379v-78h-463z"/>
<glyph glyph-name="Ccedilla" horiz-adv-x="702" unicode="Ç" d="M515 -119q0 -48 -36.5 -70.5t-85.5 -22.5q-61 0 -106 21l19 39q36 -15 79 -15q62 0 62 42q0 41 -48 41q-21 0 -46 -9l-22 19l45 65q-141 9 -229 110t-88 249q0 152 96.5 256t248.5 104q86 0 144 -25t109 -79l-66 -51q-41 41 -83 60t-105 19q-112 0 -184.5 -81.5 t-72.5 -202.5t72.5 -202.5t184.5 -81.5q66 0 110 22.5t89 72.5l65 -49q-49 -56 -104.5 -86t-131.5 -35l-30 -40h24q37 -1 63.5 -18.5t26.5 -51.5z"/>
<glyph glyph-name="Egrave" horiz-adv-x="638" unicode="È" d="M304 903l91 -148h-62l-112 109zM98 0v700h471v-78h-387v-219h350v-77h-350v-248h397v-78h-481z"/>
<glyph glyph-name="Eacute" horiz-adv-x="638" unicode="É" d="M98 0v700h471v-78h-387v-219h350v-77h-350v-248h397v-78h-481zM286 754l91 148l82 -39l-111 -109h-62z"/>
<glyph glyph-name="Ecircumflex" horiz-adv-x="638" unicode="Ê" d="M98 0v700h471v-78h-387v-219h350v-77h-350v-248h397v-78h-481zM194 754l109 138h72l109 -138h-72l-74 91l-73 -91h-71z"/>
<glyph glyph-name="Edieresis" horiz-adv-x="638" unicode="Ë" d="M98 0v700h471v-78h-387v-219h350v-77h-350v-248h397v-78h-481zM321 816q0 -24 -18 -41.5t-42 -17.5t-41.5 17.5t-17.5 41.5q0 23 17.5 41t41.5 18t42 -17.5t18 -41.5zM502 816q0 -24 -18 -41.5t-41 -17.5q-25 0 -42 17.5t-17 41.5q0 23 17.5 41t41.5 18q23 0 41 -17.5 t18 -41.5z"/>
<glyph glyph-name="Igrave" horiz-adv-x="280" unicode="Ì" d="M88 903l91 -148h-62l-112 109zM98 0v700h84v-700h-84z"/>
<glyph glyph-name="Iacute" horiz-adv-x="280" unicode="Í" d="M107 755l91 148l82 -39l-111 -109h-62zM98 0v700h84v-700h-84z"/>
<glyph glyph-name="Icircumflex" horiz-adv-x="280" unicode="Î" d="M-3 755l109 138h72l109 -138h-72l-74 91l-73 -91h-71zM98 0v700h84v-700h-84z"/>
<glyph glyph-name="Idieresis" horiz-adv-x="280" unicode="Ï" d="M110 814q0 -24 -18 -41.5t-42 -17.5t-41.5 17.5t-17.5 41.5q0 23 17.5 41t41.5 18t42 -17.5t18 -41.5zM291 814q0 -24 -18 -41.5t-41 -17.5q-25 0 -42 17.5t-17 41.5q0 23 17.5 41t41.5 18q23 0 41 -17.5t18 -41.5zM98 0v700h84v-700h-84z"/>
<glyph glyph-name="Eth" horiz-adv-x="794" unicode="Ð" d="M647 350q0 119 -80 196.5t-208 77.5h-143v-222h196v-75h-196v-251h143q129 0 208.5 77.5t79.5 196.5zM59 402h73v298h227q165 0 270.5 -98.5t105.5 -251.5t-105.5 -251.5t-270.5 -98.5h-227v327h-73v75z"/>
<glyph glyph-name="Ntilde" horiz-adv-x="800" unicode="Ñ" d="M285 751l-39 44q28 80 89 80q25 0 72 -20.5t63 -20.5q20 0 31.5 10t23.5 38l40 -44q-15 -42 -36 -61t-54 -19q-25 0 -72 20.5t-63 20.5q-20 0 -31.5 -10t-23.5 -38zM617 150h3v550h82v-700h-71l-447 561h-2v-561h-84v700h81z"/>
<glyph glyph-name="Ograve" horiz-adv-x="838" unicode="Ò" d="M361 903l91 -148h-62l-112 109zM420 68q117 0 194.5 81.5t77.5 200.5q0 118 -78.5 200t-195.5 82t-194.5 -81.5t-77.5 -200.5q0 -117 78.5 -199.5t195.5 -82.5zM418 -10q-156 0 -257.5 105t-101.5 255q0 149 101.5 254.5t259.5 105.5q153 0 256 -105.5t103 -254.5 t-101.5 -254.5t-259.5 -105.5z"/>
<glyph glyph-name="Oacute" horiz-adv-x="838" unicode="Ó" d="M420 68q117 0 194.5 81.5t77.5 200.5q0 118 -78.5 200t-195.5 82t-194.5 -81.5t-77.5 -200.5q0 -117 78.5 -199.5t195.5 -82.5zM418 -10q-156 0 -257.5 105t-101.5 255q0 149 101.5 254.5t259.5 105.5q153 0 256 -105.5t103 -254.5t-101.5 -254.5t-259.5 -105.5zM375 755 l91 148l82 -39l-111 -109h-62z"/>
<glyph glyph-name="Ocircumflex" horiz-adv-x="838" unicode="Ô" d="M420 68q117 0 194.5 81.5t77.5 200.5q0 118 -78.5 200t-195.5 82t-194.5 -81.5t-77.5 -200.5q0 -117 78.5 -199.5t195.5 -82.5zM418 -10q-156 0 -257.5 105t-101.5 255q0 149 101.5 254.5t259.5 105.5q153 0 256 -105.5t103 -254.5t-101.5 -254.5t-259.5 -105.5zM272 755 l109 138h72l109 -138h-72l-74 91l-73 -91h-71z"/>
<glyph glyph-name="Otilde" horiz-adv-x="838" unicode="Õ" d="M296 751l-39 44q28 80 89 80q25 0 72 -20.5t63 -20.5q20 0 31.5 10t23.5 38l40 -44q-15 -42 -36 -61t-54 -19q-24 0 -72 20.5t-63 20.5q-20 0 -31.5 -10t-23.5 -38zM420 68q117 0 194.5 81.5t77.5 200.5q0 118 -78.5 200t-195.5 82t-194.5 -81.5t-77.5 -200.5 q0 -117 78.5 -199.5t195.5 -82.5zM418 -10q-156 0 -257.5 105t-101.5 255q0 149 101.5 254.5t259.5 105.5q153 0 256 -105.5t103 -254.5t-101.5 -254.5t-259.5 -105.5z"/>
<glyph glyph-name="Odieresis" horiz-adv-x="838" unicode="Ö" d="M420 68q117 0 194.5 81.5t77.5 200.5q0 118 -78.5 200t-195.5 82t-194.5 -81.5t-77.5 -200.5q0 -117 78.5 -199.5t195.5 -82.5zM418 -10q-156 0 -257.5 105t-101.5 255q0 149 101.5 254.5t259.5 105.5q153 0 256 -105.5t103 -254.5t-101.5 -254.5t-259.5 -105.5zM392 814 q0 -24 -18 -41.5t-42 -17.5t-41.5 17.5t-17.5 41.5q0 23 17.5 41t41.5 18t42 -17.5t18 -41.5zM573 814q0 -24 -18 -41.5t-41 -17.5q-25 0 -42 17.5t-17 41.5q0 23 17.5 41t41.5 18q23 0 41 -17.5t18 -41.5z"/>
<glyph glyph-name="multiply" horiz-adv-x="643" unicode="×" d="M515 437l-137 -137l137 -136l-57 -57l-137 137l-136 -137l-58 57l137 136l-137 138l58 57l136 -137l137 137z"/>
<glyph glyph-name="Oslash" horiz-adv-x="838" unicode="Ø" d="M146 350q0 -101 61 -180l380 404q-73 58 -169 58q-117 0 -194.5 -81.5t-77.5 -200.5zM420 68q117 0 194.5 81.5t77.5 200.5q0 102 -62 181l-380 -404q74 -59 170 -59zM789 700l-102 -108q92 -103 92 -242q0 -149 -101.5 -254.5t-259.5 -105.5q-130 0 -225 76l-62 -66h-83 l101 108q-90 101 -90 242q0 149 101.5 254.5t259.5 105.5q125 0 223 -77l63 67h83z"/>
<glyph glyph-name="Ugrave" horiz-adv-x="728" unicode="Ù" d="M307 903l91 -148h-62l-112 109zM640 700v-405q0 -146 -75.5 -225.5t-200.5 -79.5q-126 0 -201 79t-75 225v406h85v-404q0 -109 50.5 -168.5t141.5 -59.5t141.5 60t50.5 168v404h83z"/>
<glyph glyph-name="Uacute" horiz-adv-x="728" unicode="Ú" d="M640 700v-405q0 -146 -75.5 -225.5t-200.5 -79.5q-126 0 -201 79t-75 225v406h85v-404q0 -109 50.5 -168.5t141.5 -59.5t141.5 60t50.5 168v404h83zM324 754l91 148l82 -39l-111 -109h-62z"/>
<glyph glyph-name="Ucircumflex" horiz-adv-x="728" unicode="Û" d="M640 700v-405q0 -146 -75.5 -225.5t-200.5 -79.5q-126 0 -201 79t-75 225v406h85v-404q0 -109 50.5 -168.5t141.5 -59.5t141.5 60t50.5 168v404h83zM224 755l109 138h72l109 -138h-72l-74 91l-73 -91h-71z"/>
<glyph glyph-name="Udieresis" horiz-adv-x="728" unicode="Ü" d="M640 700v-405q0 -146 -75.5 -225.5t-200.5 -79.5q-126 0 -201 79t-75 225v406h85v-404q0 -109 50.5 -168.5t141.5 -59.5t141.5 60t50.5 168v404h83zM334 814q0 -24 -18 -41.5t-42 -17.5t-41.5 17.5t-17.5 41.5q0 23 17.5 41t41.5 18t42 -17.5t18 -41.5zM515 814 q0 -24 -18 -41.5t-41 -17.5q-25 0 -42 17.5t-17 41.5q0 23 17.5 41t41.5 18q23 0 41 -17.5t18 -41.5z"/>
<glyph glyph-name="Yacute" horiz-adv-x="674" unicode="Ý" d="M304 753l91 148l82 -39l-111 -109h-62zM339 378l209 322h98l-267 -403v-297h-84v296l-267 404h101l208 -322h2z"/>
<glyph glyph-name="Thorn" d="M487 356q0 126 -168 126h-137v-254h138q167 0 167 128zM575 355q0 -99 -68 -150t-184 -51h-141v-154h-84v700h84v-143h143q119 0 184.5 -51.5t65.5 -150.5z" unicode="Þ"/>
<glyph glyph-name="germandbls" horiz-adv-x="621" unicode="ß" d="M257 -2v69q30 -5 56 -5q82 1 127 45.5t45 105.5q0 80 -47 120.5t-122 40.5h-33v66h32q50 0 84 34.5t34 95.5q0 51 -36.5 85.5t-92.5 34.5q-62 0 -101 -46.5t-39 -121.5v-522h-81v521q0 108 60.5 173.5t164.5 65.5q93 0 150.5 -54.5t57.5 -134.5q0 -57 -29.5 -99.5 t-80.5 -58.5q76 -17 119 -68.5t43 -134.5q0 -95 -67.5 -157.5t-182.5 -62.5q-29 0 -61 8z"/>
<glyph glyph-name="agrave" horiz-adv-x="544" unicode="à" d="M246 739l91 -148h-62l-112 109zM391 185v43q-68 14 -129 14q-59 0 -97 -26.5t-38 -72.5q0 -45 29 -67.5t79 -22.5q57 0 106.5 42t49.5 90zM256 305q78 0 135 -13v17q0 62 -36.5 96t-97.5 34q-72 0 -141 -50l-44 58q86 64 182 64q99 0 158 -48.5t59 -147.5v-315h-80v73h-3 q-66 -84 -175 -84q-75 0 -121.5 39t-46.5 115t61 119t150 43z"/>
<glyph glyph-name="aacute" horiz-adv-x="544" unicode="á" d="M225 591l91 148l82 -39l-111 -109h-62zM391 185v43q-68 14 -129 14q-59 0 -97 -26.5t-38 -72.5q0 -45 29 -67.5t79 -22.5q57 0 106.5 42t49.5 90zM256 305q78 0 135 -13v17q0 62 -36.5 96t-97.5 34q-72 0 -141 -50l-44 58q86 64 182 64q99 0 158 -48.5t59 -147.5v-315 h-80v73h-3q-66 -84 -175 -84q-75 0 -121.5 39t-46.5 115t61 119t150 43z"/>
<glyph glyph-name="acircumflex" horiz-adv-x="544" unicode="â" d="M127 583l109 138h72l109 -138h-72l-74 91l-73 -91h-71zM391 185v43q-68 14 -129 14q-59 0 -97 -26.5t-38 -72.5q0 -45 29 -67.5t79 -22.5q57 0 106.5 42t49.5 90zM256 305q78 0 135 -13v17q0 62 -36.5 96t-97.5 34q-72 0 -141 -50l-44 58q86 64 182 64q99 0 158 -48.5 t59 -147.5v-315h-80v73h-3q-66 -84 -175 -84q-75 0 -121.5 39t-46.5 115t61 119t150 43z"/>
<glyph glyph-name="atilde" horiz-adv-x="544" unicode="ã" d="M143 586l-39 44q28 80 89 80q25 0 72 -20.5t63 -20.5q20 0 31.5 10t23.5 38l40 -44q-15 -42 -36 -61t-54 -19q-25 0 -72 20.5t-63 20.5q-20 0 -31.5 -10t-23.5 -38zM391 185v43q-68 14 -129 14q-59 0 -97 -26.5t-38 -72.5q0 -45 29 -67.5t79 -22.5q57 0 106.5 42t49.5 90 zM256 305q78 0 135 -13v17q0 62 -36.5 96t-97.5 34q-72 0 -141 -50l-44 58q86 64 182 64q99 0 158 -48.5t59 -147.5v-315h-80v73h-3q-66 -84 -175 -84q-75 0 -121.5 39t-46.5 115t61 119t150 43z"/>
<glyph glyph-name="adieresis" horiz-adv-x="544" unicode="ä" d="M241 645q0 -24 -18 -41.5t-42 -17.5t-41.5 17.5t-17.5 41.5q0 23 17.5 41t41.5 18t42 -17.5t18 -41.5zM422 645q0 -24 -18 -41.5t-41 -17.5q-25 0 -42 17.5t-17 41.5q0 23 17.5 41t41.5 18q23 0 41 -17.5t18 -41.5zM391 185v43q-68 14 -129 14q-59 0 -97 -26.5t-38 -72.5 q0 -45 29 -67.5t79 -22.5q57 0 106.5 42t49.5 90zM256 305q78 0 135 -13v17q0 62 -36.5 96t-97.5 34q-72 0 -141 -50l-44 58q86 64 182 64q99 0 158 -48.5t59 -147.5v-315h-80v73h-3q-66 -84 -175 -84q-75 0 -121.5 39t-46.5 115t61 119t150 43z"/>
<glyph glyph-name="aring" horiz-adv-x="544" unicode="å" d="M273 607q25 0 42.5 16.5t17.5 44.5q0 27 -17 43t-43 16t-43 -16.5t-17 -44.5q0 -26 17.5 -42.5t42.5 -16.5zM273 567q-46 0 -75 29.5t-29 71.5q0 41 29.5 70t74.5 29q46 0 75 -29.5t29 -71.5q0 -41 -29.5 -70t-74.5 -29zM391 185v43q-68 14 -129 14q-59 0 -97 -26.5 t-38 -72.5q0 -45 29 -67.5t79 -22.5q57 0 106.5 42t49.5 90zM256 305q78 0 135 -13v17q0 62 -36.5 96t-97.5 34q-72 0 -141 -50l-44 58q86 64 182 64q99 0 158 -48.5t59 -147.5v-315h-80v73h-3q-66 -84 -175 -84q-75 0 -121.5 39t-46.5 115t61 119t150 43z"/>
<glyph glyph-name="ae" horiz-adv-x="903" unicode="æ" d="M474 282h297q-6 70 -43 115.5t-104 45.5q-62 0 -102 -44.5t-48 -116.5zM399 172q-7 23 -10 58q-62 13 -127 13q-59 0 -97 -27t-38 -73q0 -45 29 -67.5t79 -22.5t98.5 36.5t65.5 82.5zM633 -10q-64 0 -118 29.5t-86 81.5q-33 -52 -92 -82t-124 -30q-75 0 -121.5 39 t-46.5 115t61 119.5t150 43.5q78 0 135 -13v16q0 62 -36.5 96t-97.5 34q-72 0 -141 -50l-43 56q92 66 181 66q136 0 189 -96q67 96 183 96q106 0 167 -75.5t61 -189.5q0 -20 -1 -28h-379q7 -74 51 -115.5t110 -41.5q85 0 151 73l52 -49q-42 -47 -89.5 -71t-115.5 -24z"/>
<glyph glyph-name="ccedilla" horiz-adv-x="554" unicode="ç" d="M422 -119q0 -48 -36.5 -70.5t-85.5 -22.5q-61 0 -106 21l19 39q36 -15 79 -15q62 0 62 42q0 41 -48 41q-21 0 -46 -9l-22 19l46 65q8 -1 25 -1q20 0 29 1l-30 -40h24q37 -1 63.5 -18.5t26.5 -51.5zM463 135q-68 -73 -153 -73q-75 0 -124 54t-49 135q0 80 49.5 134 t123.5 54q83 0 145 -67l57 52q-83 87 -203 87q-109 0 -182 -75.5t-73 -184.5q0 -103 65 -177t165 -83l13 19h55l-14 -19q96 9 178 94z"/>
<glyph glyph-name="egrave" horiz-adv-x="579" unicode="è" d="M281 739l91 -148h-62l-112 109zM138 282h309q-6 70 -46 115.5t-108 45.5q-62 0 -104.5 -45t-50.5 -116zM303 -10q-106 0 -177.5 72.5t-71.5 188.5q0 110 68.5 185t172.5 75q109 0 172 -75.5t63 -189.5q0 -20 -1 -28h-391q7 -74 53.5 -115.5t113.5 -41.5q89 0 157 73 l52 -49q-85 -95 -211 -95z"/>
<glyph glyph-name="eacute" horiz-adv-x="579" unicode="é" d="M138 282h309q-6 70 -46 115.5t-108 45.5q-62 0 -104.5 -45t-50.5 -116zM303 -10q-106 0 -177.5 72.5t-71.5 188.5q0 110 68.5 185t172.5 75q109 0 172 -75.5t63 -189.5q0 -20 -1 -28h-391q7 -74 53.5 -115.5t113.5 -41.5q89 0 157 73l52 -49q-85 -95 -211 -95zM253 591 l91 148l82 -39l-111 -109h-62z"/>
<glyph glyph-name="ecircumflex" horiz-adv-x="579" unicode="ê" d="M138 282h309q-6 70 -46 115.5t-108 45.5q-62 0 -104.5 -45t-50.5 -116zM303 -10q-106 0 -177.5 72.5t-71.5 188.5q0 110 68.5 185t172.5 75q109 0 172 -75.5t63 -189.5q0 -20 -1 -28h-391q7 -74 53.5 -115.5t113.5 -41.5q89 0 157 73l52 -49q-85 -95 -211 -95zM155 583 l109 138h72l109 -138h-72l-74 91l-73 -91h-71z"/>
<glyph glyph-name="edieresis" horiz-adv-x="579" unicode="ë" d="M138 282h309q-6 70 -46 115.5t-108 45.5q-62 0 -104.5 -45t-50.5 -116zM303 -10q-106 0 -177.5 72.5t-71.5 188.5q0 110 68.5 185t172.5 75q109 0 172 -75.5t63 -189.5q0 -20 -1 -28h-391q7 -74 53.5 -115.5t113.5 -41.5q89 0 157 73l52 -49q-85 -95 -211 -95zM268 645 q0 -24 -18 -41.5t-42 -17.5t-41.5 17.5t-17.5 41.5q0 23 17.5 41t41.5 18t42 -17.5t18 -41.5zM449 645q0 -24 -18 -41.5t-41 -17.5q-25 0 -42 17.5t-17 41.5q0 23 17.5 41t41.5 18q23 0 41 -17.5t18 -41.5z"/>
<glyph glyph-name="igrave" horiz-adv-x="263" unicode="ì" d="M79 739l91 -148h-62l-112 109zM91 0v501h81v-501h-81z"/>
<glyph glyph-name="iacute" horiz-adv-x="263" unicode="í" d="M91 0v501h81v-501h-81zM103 591l91 148l82 -39l-111 -109h-62z"/>
<glyph glyph-name="icircumflex" horiz-adv-x="263" unicode="î" d="M91 0v501h81v-501h-81zM-11 583l109 138h72l109 -138h-72l-74 91l-73 -91h-71z"/>
<glyph glyph-name="idieresis" horiz-adv-x="263" unicode="ï" d="M91 0v501h81v-501h-81zM102 645q0 -24 -18 -41.5t-42 -17.5t-41.5 17.5t-17.5 41.5q0 23 17.5 41t41.5 18t42 -17.5t18 -41.5zM283 645q0 -24 -18 -41.5t-41 -17.5q-25 0 -42 17.5t-17 41.5q0 23 17.5 41t41.5 18q23 0 41 -17.5t18 -41.5z"/>
<glyph glyph-name="eth" d="M316 62q79 0 129 50.5t50 128.5q0 77 -50.5 127.5t-128.5 50.5q-85 0 -132 -49t-47 -129q0 -78 50.5 -128.5t128.5 -50.5zM496 687l-106 -51l95 -140q27 -40 42 -65.5t33.5 -80.5t18.5 -109q0 -108 -74.5 -179.5t-188.5 -71.5t-188 71.5t-74 179.5q0 109 69 179t179 70 q69 0 124 -35l-104 150l-117 -55l-35 51l117 55l-65 94h92l41 -62l106 49z" unicode="ð"/>
<glyph glyph-name="ntilde" horiz-adv-x="598" unicode="ñ" d="M179 586l-39 44q28 80 89 80q25 0 72 -20.5t63 -20.5q20 0 31.5 10t23.5 38l40 -44q-15 -42 -36 -61t-54 -19q-25 0 -72.5 20.5t-62.5 20.5q-20 0 -31.5 -10t-23.5 -38zM83 0v501h81v-74h3q53 84 163 84q86 0 136 -56t50 -148v-307h-81v291q0 69 -33.5 107.5t-96.5 38.5 q-61 0 -101 -46t-40 -115v-276h-81z"/>
<glyph glyph-name="ograve" d="M275 739l91 -148h-62l-112 109zM316 62q78 0 128.5 54.5t50.5 134.5q0 79 -51.5 133.5t-127.5 54.5q-78 0 -128.5 -54.5t-50.5 -133.5t51 -134t128 -55zM316 -10q-112 0 -187 75.5t-75 185.5t75 185t187 75t187.5 -75.5t75.5 -184.5q0 -110 -75.5 -185.5t-187.5 -75.5z " unicode="ò"/>
<glyph glyph-name="oacute" d="M316 62q78 0 128.5 54.5t50.5 134.5q0 79 -51.5 133.5t-127.5 54.5q-78 0 -128.5 -54.5t-50.5 -133.5t51 -134t128 -55zM316 -10q-112 0 -187 75.5t-75 185.5t75 185t187 75t187.5 -75.5t75.5 -184.5q0 -110 -75.5 -185.5t-187.5 -75.5zM266 591l91 148l82 -39l-111 -109 h-62z" unicode="ó"/>
<glyph glyph-name="ocircumflex" d="M316 62q78 0 128.5 54.5t50.5 134.5q0 79 -51.5 133.5t-127.5 54.5q-78 0 -128.5 -54.5t-50.5 -133.5t51 -134t128 -55zM316 -10q-112 0 -187 75.5t-75 185.5t75 185t187 75t187.5 -75.5t75.5 -184.5q0 -110 -75.5 -185.5t-187.5 -75.5zM170 583l109 138h72l109 -138h-72 l-74 91l-73 -91h-71z" unicode="ô"/>
<glyph glyph-name="otilde" d="M193 586l-39 44q28 80 89 80q25 0 72 -20.5t63 -20.5q20 0 31.5 10t23.5 38l40 -44q-15 -42 -36 -61t-54 -19q-25 0 -72 20.5t-63 20.5q-20 0 -31.5 -10t-23.5 -38zM316 62q78 0 128.5 54.5t50.5 134.5q0 79 -51.5 133.5t-127.5 54.5q-78 0 -128.5 -54.5t-50.5 -133.5 t51 -134t128 -55zM316 -10q-112 0 -187 75.5t-75 185.5t75 185t187 75t187.5 -75.5t75.5 -184.5q0 -110 -75.5 -185.5t-187.5 -75.5z" unicode="õ"/>
<glyph glyph-name="odieresis" d="M316 62q78 0 128.5 54.5t50.5 134.5q0 79 -51.5 133.5t-127.5 54.5q-78 0 -128.5 -54.5t-50.5 -133.5t51 -134t128 -55zM316 -10q-112 0 -187 75.5t-75 185.5t75 185t187 75t187.5 -75.5t75.5 -184.5q0 -110 -75.5 -185.5t-187.5 -75.5zM285 645q0 -24 -18 -41.5 t-42 -17.5t-41.5 17.5t-17.5 41.5q0 23 17.5 41t41.5 18t42 -17.5t18 -41.5zM466 645q0 -24 -18 -41.5t-41 -17.5q-25 0 -42 17.5t-17 41.5q0 23 17.5 41t41.5 18q23 0 41 -17.5t18 -41.5z" unicode="ö"/>
<glyph glyph-name="divide" horiz-adv-x="643" unicode="÷" d="M532 264h-422v74h422v-74zM384 501q0 -25 -18.5 -44t-43.5 -19t-43.5 18.5t-18.5 44.5q0 25 18.5 43t43.5 18t43.5 -18t18.5 -43zM384 104q0 -25 -18.5 -43.5t-43.5 -18.5q-26 0 -44 18t-18 44q0 25 18.5 43t43.5 18t43.5 -18t18.5 -43z"/>
<glyph glyph-name="oslash" d="M137 251q0 -66 35 -115l250 267q-47 36 -106 36q-78 0 -128.5 -54.5t-50.5 -133.5zM316 62q78 0 128.5 54.5t50.5 134.5q0 62 -35 113l-251 -267q50 -35 107 -35zM44 -1l73 78q-63 72 -63 174q0 110 75 185t187 75q91 0 159 -52l39 43h75l-74 -79q64 -74 64 -172 q0 -110 -75.5 -185.5t-187.5 -75.5q-90 0 -159 51l-39 -42h-74z" unicode="ø"/>
<glyph glyph-name="ugrave" horiz-adv-x="589" unicode="ù" d="M247 739l91 -148h-62l-112 109zM506 501v-501h-81v74h-3q-53 -84 -163 -84q-86 0 -136 56.5t-50 147.5v307h81v-291q0 -69 33.5 -107.5t96.5 -38.5q61 0 101 46t40 115v276h81z"/>
<glyph glyph-name="uacute" horiz-adv-x="589" unicode="ú" d="M506 501v-501h-81v74h-3q-53 -84 -163 -84q-86 0 -136 56.5t-50 147.5v307h81v-291q0 -69 33.5 -107.5t96.5 -38.5q61 0 101 46t40 115v276h81zM244 591l91 148l82 -39l-111 -109h-62z"/>
<glyph glyph-name="ucircumflex" horiz-adv-x="589" unicode="û" d="M506 501v-501h-81v74h-3q-53 -84 -163 -84q-86 0 -136 56.5t-50 147.5v307h81v-291q0 -69 33.5 -107.5t96.5 -38.5q61 0 101 46t40 115v276h81zM146 583l109 138h72l109 -138h-72l-74 91l-73 -91h-71z"/>
<glyph glyph-name="udieresis" horiz-adv-x="589" unicode="ü" d="M506 501v-501h-81v74h-3q-53 -84 -163 -84q-86 0 -136 56.5t-50 147.5v307h81v-291q0 -69 33.5 -107.5t96.5 -38.5q61 0 101 46t40 115v276h81zM261 645q0 -24 -18 -41.5t-42 -17.5t-41.5 17.5t-17.5 41.5q0 23 17.5 41t41.5 18t42 -17.5t18 -41.5zM442 645 q0 -24 -18 -41.5t-41 -17.5q-25 0 -42 17.5t-17 41.5q0 23 17.5 41t41.5 18q23 0 41 -17.5t18 -41.5z"/>
<glyph glyph-name="yacute" horiz-adv-x="566" unicode="ý" d="M246 591l91 148l82 -39l-111 -109h-62zM452 501h85l-213 -551q-29 -79 -69.5 -112t-102.5 -33q-57 0 -111 26l21 64q52 -19 85 -19q34 0 58 21t42 69l18 48l-232 487h87l183 -389h2z"/>
<glyph glyph-name="thorn" horiz-adv-x="643" unicode="þ" d="M334 62q73 0 122.5 51t49.5 138q0 86 -49.5 136.5t-122.5 50.5q-71 0 -123 -51t-52 -137q0 -85 52 -136.5t123 -51.5zM344 -10q-114 0 -177 84h-3v-264h-81v940h81v-328h3q70 89 177 89q97 0 171.5 -71t74.5 -189q0 -119 -74.5 -190t-171.5 -71z"/>
<glyph glyph-name="OE" horiz-adv-x="1032" unicode="Œ" d="M146 350q0 -116 77.5 -194t195.5 -78h90v544h-92q-118 0 -194.5 -77t-76.5 -195zM417 0q-154 0 -256 101t-102 249t101.5 249t258.5 101h544v-78h-370v-219h333v-77h-333v-248h380v-78h-556z"/>
<glyph glyph-name="oe" horiz-adv-x="1010" unicode="œ" d="M889 134l52 -49q-85 -95 -207 -95q-69 0 -123 32.5t-84 91.5q-31 -57 -87 -90.5t-128 -33.5q-112 0 -185 75.5t-73 185.5t73.5 185t184.5 75q72 0 128 -33.5t87 -91.5q29 58 80.5 91.5t118.5 33.5q109 0 170 -75t61 -190q0 -20 -1 -28h-383q7 -74 52 -115.5t111 -41.5 q87 0 153 73zM573 282h301q-6 70 -44.5 115.5t-105.5 45.5q-62 0 -103 -45t-48 -116zM312 62q78 0 127 54.5t49 134.5q0 79 -50 133.5t-126 54.5q-78 0 -126.5 -54t-48.5 -134t49.5 -134.5t125.5 -54.5z"/>
<glyph glyph-name="Scaron" horiz-adv-x="615" unicode="Š" d="M553 189q0 -89 -74 -144t-180 -55q-70 0 -133.5 27.5t-109.5 77.5l61 60q33 -37 81 -62t100 -25q63 0 115.5 30.5t52.5 87.5q0 46 -37 74.5t-131 51.5q-119 28 -173.5 75t-54.5 133q0 81 65.5 135.5t162.5 54.5q145 0 229 -91l-60 -59q-27 33 -73.5 52.5t-94.5 19.5 q-63 0 -102.5 -31t-39.5 -79q0 -51 34 -80.5t138 -52.5q224 -52 224 -200zM446 892l-109 -138h-72l-109 138h73l73 -91l74 91h70z"/>
<glyph glyph-name="scaron" horiz-adv-x="473" unicode="š" d="M231 -10q-97 0 -186 82l47 56q73 -70 142 -70q101 0 101 71q0 18 -7.5 31.5t-25 24.5t-33 18t-45.5 18q-34 12 -56.5 22.5t-48 28.5t-38.5 43.5t-13 57.5q0 65 51 101.5t128 36.5q95 0 164 -59l-48 -53q-49 44 -116 44q-42 0 -69.5 -17.5t-27.5 -47.5q0 -17 6.5 -29.5 t23 -23t25 -15t34.5 -14t28 -10.5q72 -26 112 -59t40 -93q0 -65 -52.5 -104.5t-135.5 -39.5zM384 702l-109 -138h-72l-109 138h73l73 -91l74 91h70z"/>
<glyph glyph-name="Ydieresis" horiz-adv-x="674" unicode="Ÿ" d="M306 812q0 -24 -18 -41.5t-42 -17.5t-41.5 17.5t-17.5 41.5q0 23 17.5 41t41.5 18t42 -17.5t18 -41.5zM487 812q0 -24 -18 -41.5t-41 -17.5q-25 0 -42 17.5t-17 41.5q0 23 17.5 41t41.5 18q23 0 41 -17.5t18 -41.5zM339 378l209 322h98l-267 -403v-297h-84v296l-267 404 h101l208 -322h2z"/>
<glyph glyph-name="circumflex" horiz-adv-x="410" unicode="ˆ" d="M60 583l109 138h72l109 -138h-72l-74 91l-73 -91h-71z"/>
<glyph glyph-name="tilde" horiz-adv-x="410" unicode="˜" d="M85 586l-39 44q28 80 89 80q25 0 72 -20.5t63 -20.5q20 0 31.5 10t23.5 38l40 -44q-15 -42 -36 -61t-54 -19q-24 0 -71.5 20.5t-63.5 20.5q-20 0 -31.5 -10t-23.5 -38z"/>
<glyph glyph-name="uni037E" horiz-adv-x="252" unicode=";" d="M52 -119l39 126q-27 20 -27 51q0 25 18.5 43t43.5 18q28 0 44 -17t16 -42q0 -21 -11 -39l-79 -140h-44zM188 450q0 -25 -18.5 -43.5t-43.5 -18.5q-26 0 -44 18t-18 44q0 25 18.5 43t43.5 18t43.5 -18t18.5 -43z"/>
<glyph glyph-name="tonos" horiz-adv-x="410" unicode="΄" d="M118 591l91 148l82 -39l-111 -109h-62z"/>
<glyph glyph-name="dieresistonos" horiz-adv-x="410" unicode="΅" d="M133 637q0 -21 -15.5 -36t-36.5 -15t-35.5 15t-14.5 36q0 20 14.5 35t35.5 15q20 0 36 -15t16 -35zM381 637q0 -21 -15.5 -36t-36.5 -15t-36 15t-15 36q0 20 15 35t36 15q20 0 36 -15t16 -35zM151 591l50 150l81 -37l-71 -113h-60z"/>
<glyph glyph-name="Alphatonos" horiz-adv-x="762" unicode="Ά" d="M381 600l-149 -345h297l-146 345h-2zM122 0h-89l311 703h80l306 -703h-94l-76 181h-359zM46 591l91 148l82 -39l-111 -109h-62z"/>
<glyph glyph-name="anoteleia" horiz-adv-x="252" unicode="·" d="M188 301q0 -25 -18.5 -43.5t-43.5 -18.5q-26 0 -44 18.5t-18 43.5t18.5 43t43.5 18t43.5 -18t18.5 -43z"/>
<glyph glyph-name="Epsilontonos" horiz-adv-x="638" unicode="Έ" d="M98 0v700h471v-78h-387v-219h350v-77h-350v-248h397v-78h-481zM-140 591l91 148l82 -39l-111 -109h-62z"/>
<glyph glyph-name="Etatonos" horiz-adv-x="760" unicode="Ή" d="M98 0v700h84v-297h377v297h84v-700h-84v326h-377v-326h-84zM-140 591l91 148l82 -39l-111 -109h-62z"/>
<glyph glyph-name="Iotatonos" horiz-adv-x="280" unicode="Ί" d="M98 0v700h84v-700h-84zM-140 591l91 148l82 -39l-111 -109h-62z"/>
<glyph glyph-name="Omicrontonos" horiz-adv-x="838" unicode="Ό" d="M420 68q117 0 194.5 81.5t77.5 200.5q0 118 -78.5 200t-195.5 82t-194.5 -81.5t-77.5 -200.5q0 -117 78.5 -199.5t195.5 -82.5zM418 -10q-156 0 -257.5 105t-101.5 255q0 149 101.5 254.5t259.5 105.5q153 0 256 -105.5t103 -254.5t-101.5 -254.5t-259.5 -105.5zM-62 591 l91 148l82 -39l-111 -109h-62z"/>
<glyph glyph-name="Upsilontonos" horiz-adv-x="674" unicode="Ύ" d="M339 378l209 322h98l-267 -403v-297h-84v296l-267 404h101l208 -322h2zM-166 591l91 148l82 -39l-111 -109h-62z"/>
<glyph glyph-name="Omegatonos" horiz-adv-x="829" unicode="Ώ" d="M-65 591l91 148l82 -39l-111 -109h-62zM474 0v76q96 26 152.5 107t56.5 182q0 113 -73 190t-196 77q-122 0 -194.5 -76.5t-72.5 -190.5q0 -101 57.5 -183t153.5 -106v-76h-289v78h149q-72 36 -115.5 113t-43.5 175q0 145 97.5 244.5t257.5 99.5t258 -100.5t98 -243.5 q0 -96 -42.5 -172.5t-114.5 -115.5h148v-78h-287z"/>
<glyph glyph-name="iotadieresistonos" horiz-adv-x="262" unicode="ΐ" d="M91 0v501h80v-501h-80zM81 637q0 -21 -15.5 -36t-36.5 -15t-35.5 15t-14.5 36q0 20 14.5 35t35.5 15q20 0 36 -15t16 -35zM329 637q0 -21 -15.5 -36t-36.5 -15t-36 15t-15 36q0 20 15 35t36 15q20 0 36 -15t16 -35zM99 591l50 150l81 -37l-71 -113h-60z"/>
<glyph glyph-name="Alpha" horiz-adv-x="762" unicode="Α" d="M381 600l-149 -345h297l-146 345h-2zM122 0h-89l311 703h80l306 -703h-94l-76 181h-359z"/>
<glyph glyph-name="Beta" horiz-adv-x="674" unicode="Β" d="M466 373v-2q66 -20 108 -63.5t42 -110.5q0 -90 -67 -143.5t-182 -53.5h-269v700h251q106 0 167 -45.5t61 -125.5q0 -108 -111 -156zM182 75h182q77 0 121 35.5t44 94.5q0 56 -46 89t-133 33h-168v-252zM182 401h153q72 0 113.5 29t41.5 88q0 51 -38 79t-110 28h-160v-224 z"/>
<glyph glyph-name="Gamma" horiz-adv-x="578" unicode="Γ" d="M98 0v700h447v-78h-363v-622h-84z"/>
<glyph glyph-name="uni0394" horiz-adv-x="763" unicode="Δ" d="M33 0l311 703h80l307 -703h-698zM605 76l-222 525h-2l-226 -525h450z"/>
<glyph glyph-name="Epsilon" horiz-adv-x="638" unicode="Ε" d="M98 0v700h471v-78h-387v-219h350v-77h-350v-248h397v-78h-481z"/>
<glyph glyph-name="Zeta" horiz-adv-x="652" unicode="Ζ" d="M593 0h-534v72l422 552h-409v76h516v-71l-422 -553h427v-76z"/>
<glyph glyph-name="Eta" horiz-adv-x="760" unicode="Η" d="M98 0v700h84v-297h377v297h84v-700h-84v326h-377v-326h-84z"/>
<glyph glyph-name="Theta" horiz-adv-x="839" unicode="Θ" d="M421 68q117 0 194.5 81.5t77.5 200.5q0 118 -78.5 200t-195.5 82q-118 0 -195.5 -81t-77.5 -201q0 -118 78.5 -200t196.5 -82zM419 -10q-156 0 -258 105t-102 255t101.5 255t260.5 105q153 0 256 -105.5t103 -254.5q0 -150 -101.5 -255t-259.5 -105zM588 317h-337v77h337 v-77z"/>
<glyph glyph-name="Iota" horiz-adv-x="280" unicode="Ι" d="M98 0v700h84v-700h-84z"/>
<glyph glyph-name="Kappa" horiz-adv-x="701" unicode="Κ" d="M182 700v-370l355 370h109l-297 -308l319 -392h-108l-269 330l-109 -112v-218h-84v700h84z"/>
<glyph glyph-name="Lambda" horiz-adv-x="735" unicode="Λ" d="M366 595l-245 -595h-88l296 703h80l294 -703h-93l-242 595h-2z"/>
<glyph glyph-name="Mu" horiz-adv-x="868" unicode="Μ" d="M683 561l-243 -333h-9l-248 333h-2v-561h-83v700h84l253 -340l246 340h89v-700h-85v561h-2z"/>
<glyph glyph-name="Nu" horiz-adv-x="800" unicode="Ν" d="M617 150h3v550h82v-700h-71l-447 561h-2v-561h-84v700h81z"/>
<glyph glyph-name="Xi" horiz-adv-x="670" unicode="Ξ" d="M98 323v83h474v-83h-474zM59 0v82h552v-82h-552zM64 618v82h542v-82h-542z"/>
<glyph glyph-name="Omicron" horiz-adv-x="838" unicode="Ο" d="M420 68q117 0 194.5 81.5t77.5 200.5q0 118 -78.5 200t-195.5 82t-194.5 -81.5t-77.5 -200.5q0 -117 78.5 -199.5t195.5 -82.5zM418 -10q-156 0 -257.5 105t-101.5 255q0 149 101.5 254.5t259.5 105.5q153 0 256 -105.5t103 -254.5t-101.5 -254.5t-259.5 -105.5z"/>
<glyph glyph-name="Pi" horiz-adv-x="732" unicode="Π" d="M98 0v700h536v-700h-84v622h-368v-622h-84z"/>
<glyph glyph-name="Rho" d="M487 499q0 126 -168 126h-137v-254h138q167 0 167 128zM575 498q0 -99 -68 -150t-184 -51h-141v-297h-84v700h227q119 0 184.5 -51.5t65.5 -150.5z" unicode="Ρ"/>
<glyph glyph-name="Sigma" horiz-adv-x="663" unicode="Σ" d="M75 636v64h520v-78h-398l222 -255l-243 -289h428v-78h-545v60l253 301z"/>
<glyph glyph-name="Tau" horiz-adv-x="601" unicode="Τ" d="M567 622h-224v-622h-84v622h-225v78h533v-78z"/>
<glyph glyph-name="Upsilon" horiz-adv-x="674" unicode="Υ" d="M339 378l209 322h98l-267 -403v-297h-84v296l-267 404h101l208 -322h2z"/>
<glyph glyph-name="Phi" horiz-adv-x="897" unicode="Φ" d="M752 353q0 97 -71.5 157t-190.5 67v-442q120 6 191 63t71 155zM146 353q0 -96 71 -153t190 -64v441q-120 -6 -190.5 -65.5t-70.5 -158.5zM407 -3v65q-156 7 -252 82.5t-96 208.5t96.5 211t251.5 86v53h83v-53q155 -7 251.5 -85t96.5 -212q0 -131 -96.5 -207t-251.5 -84 v-65h-83z"/>
<glyph glyph-name="Chi" horiz-adv-x="685" unicode="Χ" d="M636 700l-243 -339l258 -361h-103l-207 293l-208 -293h-99l257 359l-243 341h103l192 -272l193 272h100z"/>
<glyph glyph-name="Psi" horiz-adv-x="827" unicode="Ψ" d="M371 0v131q-132 4 -212 78.5t-80 219.5v271h83v-269q0 -107 57.5 -164.5t151.5 -61.5v495h83v-495q96 4 153.5 62t57.5 166v267h84v-271q0 -143 -81.5 -218.5t-213.5 -79.5v-131h-83z"/>
<glyph glyph-name="uni03A9" horiz-adv-x="829" unicode="Ω" d="M474 0v76q96 26 152.5 107t56.5 182q0 113 -73 190t-196 77q-122 0 -194.5 -76.5t-72.5 -190.5q0 -101 57.5 -183t153.5 -106v-76h-289v78h149q-72 36 -115.5 113t-43.5 175q0 145 97.5 244.5t257.5 99.5t258 -100.5t98 -243.5q0 -96 -42.5 -172.5t-114.5 -115.5h148v-78 h-287z"/>
<glyph glyph-name="Iotadieresis" horiz-adv-x="280" unicode="Ϊ" d="M98 0v700h84v-700h-84zM110 812q0 -24 -18 -41.5t-42 -17.5t-41.5 17.5t-17.5 41.5q0 23 17.5 41t41.5 18t42 -17.5t18 -41.5zM291 812q0 -24 -18 -41.5t-41 -17.5q-25 0 -42 17.5t-17 41.5q0 23 17.5 41t41.5 18q23 0 41 -17.5t18 -41.5z"/>
<glyph glyph-name="Upsilondieresis" horiz-adv-x="674" unicode="Ϋ" d="M339 378l209 322h98l-267 -403v-297h-84v296l-267 404h101l208 -322h2zM307 812q0 -24 -18 -41.5t-42 -17.5t-41.5 17.5t-17.5 41.5q0 23 17.5 41t41.5 18t42 -17.5t18 -41.5zM488 812q0 -24 -18 -41.5t-41 -17.5q-25 0 -42 17.5t-17 41.5q0 23 17.5 41t41.5 18 q23 0 41 -17.5t18 -41.5z"/>
<glyph glyph-name="alphatonos" horiz-adv-x="643" unicode="ά" d="M309 62q71 0 123 51.5t52 136.5q0 86 -52 137t-123 51q-72 0 -122 -50.5t-50 -136.5q0 -87 49.5 -138t122.5 -51zM299 -10q-97 0 -171 71t-74 190q0 118 74 189t171 71q116 0 177 -87h3v78h81v-502h-81v76h-3q-61 -86 -177 -86zM273 591l91 148l82 -39l-111 -109h-62z "/>
<glyph glyph-name="epsilontonos" horiz-adv-x="552" unicode="έ" d="M168 263v2q-47 9 -71 38.5t-24 68.5q0 70 60 104.5t148 34.5q142 0 222 -78l-52 -53q-73 62 -169 62q-126 0 -126 -79q0 -31 27 -50t69 -19h122v-64h-127q-52 0 -81 -25.5t-29 -63.5q0 -80 137 -80q51 0 104 20.5t84 56.5l51 -50q-94 -97 -240 -97q-102 0 -160.5 37 t-58.5 106q0 50 31.5 85t82.5 44zM256 591l91 148l82 -39l-111 -109h-62z"/>
<glyph glyph-name="etatonos" horiz-adv-x="598" unicode="ή" d="M83 0v501h81v-74h3q50 84 163 84q86 0 136 -56t50 -148v-497h-81v481q0 69 -33.5 107.5t-96.5 38.5q-61 0 -101 -46t-40 -115v-276h-81zM286 591l91 148l82 -39l-111 -109h-62z"/>
<glyph glyph-name="iotatonos" horiz-adv-x="262" unicode="ί" d="M91 0v501h80v-501h-80zM100 591l91 148l82 -39l-111 -109h-62z"/>
<glyph glyph-name="upsilondieresistonos" horiz-adv-x="597" unicode="ΰ" d="M515 501v-269q0 -107 -55.5 -174.5t-163.5 -67.5q-105 0 -159.5 68t-54.5 174v269h81v-265q0 -81 34.5 -127t100.5 -46t101 46t35 127v265h81zM238 637q0 -21 -15.5 -36t-36.5 -15t-35.5 15t-14.5 36q0 20 14.5 35t35.5 15q20 0 36 -15t16 -35zM486 637q0 -21 -15.5 -36 t-36.5 -15t-36 15t-15 36q0 20 15 35t36 15q20 0 36 -15t16 -35zM256 591l50 150l81 -37l-71 -113h-60z"/>
<glyph glyph-name="alpha" horiz-adv-x="643" unicode="α" d="M309 62q71 0 123 51.5t52 136.5q0 86 -52 137t-123 51q-72 0 -122 -50.5t-50 -136.5q0 -87 49.5 -138t122.5 -51zM299 -10q-97 0 -171 71t-74 190q0 118 74 189t171 71q116 0 177 -87h3v78h81v-502h-81v76h-3q-61 -86 -177 -86z"/>
<glyph glyph-name="beta" horiz-adv-x="630" unicode="β" d="M167 76h-3v-266h-81v711q0 107 62.5 173t166.5 66q94 0 153 -54t59 -134q0 -58 -29.5 -100.5t-81.5 -58.5q163 -40 163 -202q0 -93 -68 -157t-164 -64q-119 0 -177 86zM338 63q63 0 109 42t46 108q0 79 -47.5 120t-121.5 41h-35v66h34q51 0 84.5 35t33.5 95 q0 51 -38.5 85.5t-94.5 34.5q-62 0 -103 -47t-41 -121v-276q0 -86 52 -134.5t122 -48.5z"/>
<glyph glyph-name="gamma" horiz-adv-x="561" unicode="γ" d="M281 91l165 410h86l-212 -501v-190h-80v189l-211 502h87l164 -410h1z"/>
<glyph glyph-name="delta" d="M239 681l235 -221q105 -100 105 -216q0 -106 -76.5 -180t-186.5 -74q-109 0 -185.5 73.5t-76.5 180.5q0 105 68 174t172 69q26 0 42 -4l-219 206v61h398v-69h-276zM317 62q76 0 127 53t51 128t-47.5 129t-131.5 54q-85 0 -132 -52t-47 -129q0 -76 53 -129.5t127 -53.5z " unicode="δ"/>
<glyph glyph-name="epsilon" horiz-adv-x="552" unicode="ε" d="M168 263v2q-47 9 -71 38.5t-24 68.5q0 70 60 104.5t148 34.5q142 0 222 -78l-52 -53q-73 62 -169 62q-126 0 -126 -79q0 -31 27 -50t69 -19h122v-64h-127q-52 0 -81 -25.5t-29 -63.5q0 -80 137 -80q51 0 104 20.5t84 56.5l51 -50q-94 -97 -240 -97q-102 0 -160.5 37 t-58.5 106q0 50 31.5 85t82.5 44z"/>
<glyph glyph-name="zeta" horiz-adv-x="514" unicode="ζ" d="M397 679h-299v71h402v-66q-363 -301 -363 -494q0 -62 36.5 -84t131.5 -28q94 -5 139 -26.5t45 -81.5q0 -34 -25 -131h-76q23 83 23 109q0 33 -25 42.5t-108 13.5q-120 6 -172 50t-52 132q0 104 97.5 239.5t245.5 253.5z"/>
<glyph glyph-name="eta" horiz-adv-x="598" unicode="η" d="M83 0v501h81v-74h3q50 84 163 84q86 0 136 -56t50 -148v-497h-81v481q0 69 -33.5 107.5t-96.5 38.5q-61 0 -101 -46t-40 -115v-276h-81z"/>
<glyph glyph-name="theta" horiz-adv-x="641" unicode="θ" d="M148 349q2 -126 46 -206.5t126 -80.5q83 0 126 80.5t45 206.5h-343zM490 415q-4 118 -48 196.5t-123 78.5t-122.5 -78.5t-46.5 -196.5h340zM576 373q0 -106 -26.5 -190.5t-86 -138.5t-144.5 -54t-144 54t-85 138.5t-26 190.5q0 105 26.5 190.5t86 141t143.5 55.5 q86 0 145 -55t85 -140t26 -192z"/>
<glyph glyph-name="iota" horiz-adv-x="262" unicode="ι" d="M91 0v501h80v-501h-80z"/>
<glyph glyph-name="kappa" horiz-adv-x="549" unicode="κ" d="M164 501v-246l256 246h101l-212 -202l221 -299h-95l-182 245l-89 -86v-159h-81v501h81z"/>
<glyph glyph-name="lambda" horiz-adv-x="560" unicode="λ" d="M250 502l-45 116q-26 70 -77 70q-23 0 -45 -7l-12 69q30 10 72 10q48 0 80.5 -27.5t54.5 -85.5l253 -647h-86l-155 402h-1l-175 -402h-85z"/>
<glyph glyph-name="uni03BC" horiz-adv-x="599" unicode="μ" d="M165 63h-1v-253h-81v691h81v-284q0 -67 33.5 -110.5t98.5 -43.5q60 0 99.5 44t39.5 114v280h81v-501h-81v75h-2q-20 -38 -55 -61.5t-82 -23.5q-94 0 -131 73z"/>
<glyph glyph-name="nu" horiz-adv-x="561" unicode="ν" d="M243 -4l-214 505h87l164 -406h1l165 406h86l-215 -505h-74z"/>
<glyph glyph-name="xi" horiz-adv-x="533" unicode="ξ" d="M466 373h-121q-101 0 -154.5 -40t-53.5 -113q0 -61 35.5 -95t122.5 -46q31 -4 53 -8t49 -10.5t44.5 -15t33.5 -19.5t23.5 -27t7.5 -35q0 -41 -23 -125h-76q21 70 21 97q0 9 -2.5 17t-8.5 14t-12.5 10.5t-18 8.5t-20.5 6.5t-24 5t-26 4t-29 4t-29 4.5q-109 17 -156.5 69 t-47.5 136q0 70 43 125.5t135 73.5q-66 15 -94 53.5t-28 77.5q0 45 28.5 83t88.5 52h-138v70h430v-72h-108q-111 0 -164.5 -37.5t-53.5 -91.5q0 -53 47 -78t109 -25h117v-73z"/>
<glyph glyph-name="omicron" d="M316 62q78 0 128.5 54.5t50.5 134.5q0 79 -51.5 133.5t-127.5 54.5q-78 0 -128.5 -54.5t-50.5 -133.5t51 -134t128 -55zM316 -10q-112 0 -187 75.5t-75 185.5t75 185t187 75t187.5 -75.5t75.5 -184.5q0 -110 -75.5 -185.5t-187.5 -75.5z" unicode="ο"/>
<glyph glyph-name="pi" horiz-adv-x="591" unicode="π" d="M83 0v501h425v-501h-81v432h-263v-432h-81z"/>
<glyph glyph-name="rho" horiz-adv-x="624" unicode="ρ" d="M145 77h-1v-267h-80v441q0 119 70 189.5t183 70.5q110 0 181.5 -68.5t71.5 -191.5q0 -122 -72 -191.5t-172 -69.5q-122 0 -181 87zM321 62q76 0 121 49.5t45 139.5q0 89 -45.5 138.5t-124.5 49.5q-77 0 -127 -52t-50 -140q0 -83 53 -134t128 -51z"/>
<glyph glyph-name="sigma1" horiz-adv-x="559" unicode="ς" d="M336 77q64 -15 94 -43t30 -73q0 -32 -22 -122h-77q20 67 20 102q0 51 -88 70q-54 12 -94.5 29.5t-75 46t-52 72.5t-17.5 102q0 107 75 178.5t186 71.5q120 0 206 -96l-63 -53q-61 77 -146 77q-74 0 -124.5 -50.5t-50.5 -123.5q0 -46 13 -78t41.5 -52.5t60.5 -32.5t84 -25 z"/>
<glyph glyph-name="sigma" horiz-adv-x="643" unicode="σ" d="M316 62q78 0 128.5 52.5t50.5 131.5t-51 131t-128 52q-79 0 -129 -52t-50 -131q0 -78 51 -131t128 -53zM316 501h293v-71h-137v-2q107 -45 107 -182q0 -109 -75 -182.5t-188 -73.5t-187.5 73.5t-74.5 182.5t74.5 182t187.5 73z"/>
<glyph glyph-name="tau" horiz-adv-x="466" unicode="τ" d="M194 0v431h-164v70h407v-70h-162v-431h-81z"/>
<glyph glyph-name="upsilon" horiz-adv-x="597" unicode="υ" d="M515 501v-269q0 -107 -55.5 -174.5t-163.5 -67.5q-105 0 -159.5 68t-54.5 174v269h81v-265q0 -81 34.5 -127t100.5 -46t101 46t35 127v265h81z"/>
<glyph glyph-name="phi" horiz-adv-x="779" unicode="φ" d="M633 251q0 87 -54 135t-154 54v-375q208 18 208 186zM345 -190v184q-138 6 -214.5 72t-76.5 184q0 196 196 257l24 -67q-65 -20 -101.5 -69.5t-36.5 -120.5q0 -87 55.5 -132.5t153.5 -52.5v443q18 1 50 1q148 0 234 -66t86 -192q0 -116 -76.5 -183t-213.5 -73v-185h-80z "/>
<glyph glyph-name="chi" horiz-adv-x="543" unicode="χ" d="M421 0l-149 200h-2l-151 -200h-90l195 256l-187 245h93l141 -187h2l142 187h92l-189 -243l197 -258h-94z"/>
<glyph glyph-name="psi" horiz-adv-x="767" unicode="ψ" d="M685 501v-276q0 -101 -67 -165.5t-195 -67.5v-182h-80v182q-128 3 -194.5 67.5t-66.5 165.5v276h81v-272q0 -75 47 -119t133 -47v610h80v-610q86 3 133.5 47t47.5 119v272h81z"/>
<glyph glyph-name="omega" horiz-adv-x="779" unicode="ω" d="M643 237q0 45 -12 84.5t-46 74t-87 43.5l11 73q98 -6 157 -80t59 -195q0 -119 -50.5 -183t-139.5 -64q-101 0 -146 106q-42 -106 -146 -106q-92 0 -140.5 63.5t-48.5 183.5q0 121 59 195t157 80l11 -73q-53 -9 -87 -43.5t-46 -74t-12 -84.5q0 -175 111 -175 q102 0 102 139v156h80v-156q0 -71 27.5 -105t73.5 -34q113 0 113 175z"/>
<glyph glyph-name="iotadieresis" horiz-adv-x="262" unicode="ϊ" d="M91 0v501h80v-501h-80zM105 645q0 -24 -18 -41.5t-42 -17.5t-41.5 17.5t-17.5 41.5q0 23 17.5 41t41.5 18t42 -17.5t18 -41.5zM286 645q0 -24 -18 -41.5t-41 -17.5q-25 0 -42 17.5t-17 41.5q0 23 17.5 41t41.5 18q23 0 41 -17.5t18 -41.5z"/>
<glyph glyph-name="upsilondieresis" horiz-adv-x="597" unicode="ϋ" d="M515 501v-269q0 -107 -55.5 -174.5t-163.5 -67.5q-105 0 -159.5 68t-54.5 174v269h81v-265q0 -81 34.5 -127t100.5 -46t101 46t35 127v265h81zM272 645q0 -24 -18 -41.5t-42 -17.5t-41.5 17.5t-17.5 41.5q0 23 17.5 41t41.5 18t42 -17.5t18 -41.5zM453 645 q0 -24 -18 -41.5t-41 -17.5q-25 0 -42 17.5t-17 41.5q0 23 17.5 41t41.5 18q23 0 41 -17.5t18 -41.5z"/>
<glyph glyph-name="omicrontonos" d="M316 62q78 0 128.5 54.5t50.5 134.5q0 79 -51.5 133.5t-127.5 54.5q-78 0 -128.5 -54.5t-50.5 -133.5t51 -134t128 -55zM316 -10q-112 0 -187 75.5t-75 185.5t75 185t187 75t187.5 -75.5t75.5 -184.5q0 -110 -75.5 -185.5t-187.5 -75.5zM292 591l91 148l82 -39l-111 -109 h-62z" unicode="ό"/>
<glyph glyph-name="upsilontonos" horiz-adv-x="597" unicode="ύ" d="M515 501v-269q0 -107 -55.5 -174.5t-163.5 -67.5q-105 0 -159.5 68t-54.5 174v269h81v-265q0 -81 34.5 -127t100.5 -46t101 46t35 127v265h81zM264 591l91 148l82 -39l-111 -109h-62z"/>
<glyph glyph-name="omegatonos" horiz-adv-x="779" unicode="ώ" d="M643 237q0 45 -12 84.5t-46 74t-87 43.5l11 73q98 -6 157 -80t59 -195q0 -119 -50.5 -183t-139.5 -64q-101 0 -146 106q-42 -106 -146 -106q-92 0 -140.5 63.5t-48.5 183.5q0 121 59 195t157 80l11 -73q-53 -9 -87 -43.5t-46 -74t-12 -84.5q0 -175 111 -175 q102 0 102 139v156h80v-156q0 -71 27.5 -105t73.5 -34q113 0 113 175zM362 591l91 148l82 -39l-111 -109h-62z"/>
<glyph glyph-name="uni03D7" horiz-adv-x="996" unicode="ϗ" d="M749 501l-217 -174l127 -160q42 -52 95 -52q58 0 96 57.5t38 148.5q0 137 -110 236.5t-265 99.5t-276 -118t-121 -281q0 -155 106 -262t269 -107q124 0 240 67l27 -45q-126 -75 -268 -75q-186 0 -308.5 122.5t-122.5 298.5q0 86 35 168t94.5 145t144.5 101.5t179 38.5 q179 0 306.5 -115t127.5 -272q0 -122 -59.5 -194t-138.5 -72q-86 0 -148 79l-119 150l-99 -79l-31 -127h-76l104 421h76l-50 -201l247 201h97z"/>
<glyph glyph-name="endash" horiz-adv-x="567" unicode="–" d="M508 259h-444v83h444v-83z"/>
<glyph glyph-name="emdash" horiz-adv-x="989" unicode="—" d="M930 259h-871v83h871v-83z"/>
<glyph glyph-name="quoteleft" horiz-adv-x="266" unicode="‘" d="M208 700l-47 -230h-103l76 230h74z"/>
<glyph glyph-name="quotesinglbase" horiz-adv-x="251" unicode="‚" d="M54 -119l46 230h103l-75 -230h-74z"/>
<glyph glyph-name="quotedblleft" horiz-adv-x="447" unicode="“" d="M208 700l-47 -230h-103l76 230h74zM389 700l-47 -230h-103l76 230h74z"/>
<glyph glyph-name="quotedblright" horiz-adv-x="447" unicode="”" d="M239 470l47 230h103l-76 -230h-74zM58 470l47 230h103l-76 -230h-74z"/>
<glyph glyph-name="dagger" horiz-adv-x="422" unicode="†" d="M177 234v275h-118v61h118v130h69v-130h117v-61h-117v-275h-69z"/>
<glyph glyph-name="daggerdbl" horiz-adv-x="422" unicode="‡" d="M59 191h118v318h-118v61h118v130h69v-130h117v-61h-117v-318h117v-61h-117v-130h-69v130h-118v61z"/>
<glyph glyph-name="ellipsis" horiz-adv-x="814" unicode="…" d="M750 58q0 -25 -18.5 -43.5t-43.5 -18.5q-26 0 -44 18t-18 44q0 25 18.5 43t43.5 18t43.5 -18t18.5 -43zM469 58q0 -25 -18.5 -43.5t-43.5 -18.5t-43.5 18t-18.5 44q0 25 18.5 43t43.5 18t43.5 -18t18.5 -43zM188 58q0 -25 -18.5 -43.5t-43.5 -18.5q-26 0 -44 18t-18 44 q0 25 18.5 43t43.5 18t43.5 -18t18.5 -43z"/>
<glyph glyph-name="perthousand" horiz-adv-x="1173" unicode="‰" d="M969 51q37 0 61 32.5t24 91.5t-24 92t-61 33t-61 -33t-24 -92q0 -57 24 -90.5t61 -33.5zM969 -6q-66 0 -107.5 51t-41.5 130t41.5 130t107.5 51t108 -51t42 -130t-42 -130t-108 -51zM608 51q36 0 60.5 32.5t24.5 91.5q0 58 -24.5 91.5t-60.5 33.5q-37 0 -61.5 -33 t-24.5 -92q0 -58 24.5 -91t61.5 -33zM608 -6q-67 0 -108.5 51t-41.5 130t42 130t108 51t107.5 -51t41.5 -130t-41.5 -130t-107.5 -51zM205 401q36 0 60 32.5t24 91.5t-24 92t-60 33q-37 0 -61.5 -33t-24.5 -92q0 -58 24.5 -91t61.5 -33zM205 344q-67 0 -108.5 51t-41.5 130 t42 130t108 51t107.5 -51t41.5 -130t-41.5 -130t-107.5 -51zM151 0l433 700h70l-431 -700h-72z"/>
<glyph glyph-name="guilsinglleft" horiz-adv-x="309" unicode="‹" d="M255 87l-59 -39l-151 213l150 211l59 -38l-119 -173z"/>
<glyph glyph-name="guilsinglright" horiz-adv-x="309" unicode="›" d="M113 48l-58 39l119 174l-119 173l59 38l151 -211z"/>
<glyph glyph-name="fraction" horiz-adv-x="203" unicode="⁄" d="M-142 -32l433 792l54 -28l-432 -792z"/>
<glyph glyph-name="Euro" horiz-adv-x="706" unicode="€" d="M44 451h106q23 119 97.5 189t175.5 70q74 0 123.5 -25.5t93.5 -78.5l-62 -53q-36 41 -69.5 60t-85.5 19q-64 0 -113.5 -49.5t-69.5 -131.5h294v-59h-304q-2 -14 -2 -42q0 -16 2 -44h304v-59h-293q21 -81 70 -130t112 -49q56 0 93.5 21t73.5 70l62 -47q-44 -61 -98 -91.5 t-131 -30.5q-102 0 -176 69t-96 188h-107v59h99q-2 28 -2 44q0 28 1 42h-98v59z"/>
<glyph glyph-name="trademark" horiz-adv-x="762" unicode="™" d="M379 350v350h52l115 -158l112 158h54v-350h-52v265h-3l-107 -152h-7l-108 149h-2v-262h-54zM139 350v305h-109v45h275v-45h-110v-305h-56z"/>
<glyph glyph-name="partialdiff" horiz-adv-x="615" unicode="∂" d="M308 59q78 0 124.5 43.5t46.5 117.5q0 67 -45.5 112t-127.5 45q-78 0 -124 -40.5t-46 -117.5q0 -75 47 -117.5t125 -42.5zM407 419l-170 281h87l180 -304q53 -89 53 -180q0 -92 -68.5 -159t-181.5 -67t-181 67.5t-68 162.5q0 102 67.5 164t168.5 62q66 0 113 -27z"/>
<glyph glyph-name="product" horiz-adv-x="682" unicode="∏" d="M582 -103h-77v731h-329v-731h-76v803h482v-803z"/>
<glyph glyph-name="summation" horiz-adv-x="560" unicode="∑" d="M500 -103h-440v61l197 347l-194 333v62h435v-71h-345l189 -324l-191 -337h349v-71z"/>
<glyph glyph-name="minus" horiz-adv-x="643" unicode="−" d="M571 261h-500v79h500v-79z"/>
<glyph glyph-name="radical" horiz-adv-x="644" unicode="√" d="M223 501l119 -380l196 579h79l-241 -700h-67l-145 429h-107v72h166z"/>
<glyph glyph-name="infinity" horiz-adv-x="810" unicode="∞" d="M236 207q30 0 58.5 28.5t66.5 83.5q-21 30 -32.5 45t-29 34.5t-33 28t-30.5 8.5q-47 0 -76 -30.5t-29 -82.5t30.5 -83.5t74.5 -31.5zM575 435q-36 0 -67 -30t-69 -86q37 -55 68 -83.5t68 -28.5q44 0 74.5 31.5t30.5 83.5t-29 82.5t-76 30.5zM236 503q47 0 84.5 -33.5 t80.5 -96.5q44 61 84.5 95.5t88.5 34.5q77 0 127.5 -48t50.5 -133q0 -84 -51 -133.5t-127 -49.5q-84 0 -173 126q-41 -60 -79.5 -93.5t-85.5 -33.5q-76 0 -127 50t-51 134q0 85 50.5 133t127.5 48z"/>
<glyph glyph-name="approxequal" horiz-adv-x="643" unicode="≈" d="M247 360q-37 0 -77 -42l-33 37q44 58 107 58q27 0 84 -20t74 -20q37 0 77 42l33 -37q-43 -57 -107 -57q-27 0 -84 19.5t-74 19.5zM245 237q-37 0 -76 -42l-34 37q43 57 107 57q27 0 84 -19.5t74 -19.5q38 0 77 42l33 -37q-42 -57 -107 -57q-27 0 -83.5 19.5t-74.5 19.5z "/>
<glyph glyph-name="notequal" horiz-adv-x="642" unicode="≠" d="M530 527l-81 -108h112v-74h-167l-70 -93h237v-74h-292l-110 -148l-53 41l80 107h-105v74h160l69 93h-229v74h285l111 149z"/>
<glyph glyph-name="lessequal" horiz-adv-x="612" unicode="≤" d="M532 0h-452v72h452v-72zM532 113l-452 180v70l452 181v-73l-362 -143l362 -144v-71z"/>
<glyph glyph-name="greaterequal" horiz-adv-x="612" unicode="≥" d="M532 0h-452v72h452v-72zM532 293l-452 -180v71l362 144l-362 143v73l452 -181v-70z"/>
<glyph glyph-name="lozenge" horiz-adv-x="608" unicode="◊" d="M303 108l167 238l-167 238l-165 -238zM554 346l-251 -358l-249 358l249 358z"/>
</font>
</defs>
</svg>
