<?xml version="1.0" encoding="UTF-8" standalone="no"?>
<!DOCTYPE svg  PUBLIC '-//W3C//DTD SVG 1.1//EN'  'http://www.w3.org/Graphics/SVG/1.1/DTD/svg11.dtd'>
<svg xmlns="http://www.w3.org/2000/svg">
<defs>
<font id="PFHighwayGothicThin-Regular" horiz-adv-x="580">
<font-face underline-position="-88" font-weight="400" descent="-200" panose-1="2 0 3 6 2 0 0 2 0 4" units-per-em="1000" unicode-range="U+0020-2122" bbox="-160 -193 1231 828" x-height="488" underline-thickness="36" font-family="PFHighwayGothicThin" ascent="800" cap-height="651"/>
<missing-glyph horiz-adv-x="1000"/>
<glyph glyph-name=".notdef" horiz-adv-x="1000"/>
<glyph glyph-name=".null" horiz-adv-x="0"/>
<glyph glyph-name="nonmarkingreturn" horiz-adv-x="333"/>
<glyph glyph-name="space" horiz-adv-x="210" unicode=" "/>
<glyph glyph-name="exclam" horiz-adv-x="221" unicode="!" d="M119 -4q-14 0 -24 10t-10 25q0 14 10 24.5t24 10.5t23.5 -10.5t9.5 -24.5q0 -15 -9.5 -25t-23.5 -10zM103 174l-7 255v222h46v-222l-10 -255h-29z"/>
<glyph glyph-name="quotedbl" horiz-adv-x="314" unicode='&quot;' d="M112 450h-27l-10 201h46zM226 450h-27l-10 201h47z"/>
<glyph glyph-name="numbersign" horiz-adv-x="611" unicode="#" d="M235 416l-28 -168h178l28 168h-178zM569 416h-117l-28 -168h117l-7 -37h-117l-36 -211h-39l37 211h-178l-37 -211h-39l37 211h-117l6 37h117l29 168h-118l7 37h117l34 198h38l-33 -198h178l33 198h39l-34 -198h117z"/>
<glyph glyph-name="dollar" horiz-adv-x="506" unicode="$" d="M270 -93h-44v85q-116 12 -187 83l34 32q71 -71 179 -71q81 0 128 32t47 100q0 56 -42 86t-136 60q-104 34 -150.5 74t-46.5 105q0 67 46.5 111t127.5 54v86h44v-85q96 -9 166 -67l-32 -32q-68 57 -160 57q-68 0 -106.5 -33t-38.5 -86q0 -28 12 -50t35 -37t41.5 -23 t46.5 -17l84 -28q73 -25 114 -66t41 -113t-50 -117.5t-153 -53.5v-86z"/>
<glyph glyph-name="percent" horiz-adv-x="867" unicode="%" d="M179 622q-53 0 -82.5 -43t-29.5 -108q0 -71 31 -113t85 -42q52 0 83 45.5t31 107.5q0 67 -31 110t-87 43zM695 333q-53 0 -82.5 -43t-29.5 -108q0 -70 31 -112.5t84 -42.5t83.5 45.5t30.5 107.5q0 66 -31 109.5t-86 43.5zM180 281q-66 0 -109.5 51t-43.5 137 q0 87 44 137.5t111 50.5t110.5 -50t43.5 -136q0 -89 -44 -139.5t-112 -50.5zM225 0l385 651h43l-385 -651h-43zM695 -8q-65 0 -108.5 51.5t-43.5 136.5q0 87 44 137.5t111 50.5t110.5 -50t43.5 -136q0 -89 -44 -139.5t-113 -50.5z"/>
<glyph glyph-name="ampersand" horiz-adv-x="581" unicode="&amp;" d="M239 333q-52 -37 -56 -40q-87 -66 -87 -148q0 -55 36.5 -86.5t89.5 -31.5q86 0 172 102zM272 630q-55 0 -78 -32t-23 -64q0 -28 19 -62.5t61 -94.5q114 87 114 152q0 11 -2.5 23.5t-10 32.5t-28.5 32.5t-52 12.5zM419 96q-52 -54 -98 -80.5t-104 -26.5q-69 0 -115.5 40.5 t-46.5 110.5q0 72 39.5 120t122.5 103q-14 19 -30 41t-20 28q-36 56 -36 96q0 58 39.5 97t98.5 39q58 0 96 -35.5t38 -82.5q0 -55 -27.5 -94.5t-100.5 -102.5l143 -186q38 67 45 121h41q-14 -84 -60 -152l107 -131h-56z"/>
<glyph glyph-name="quotesingle" horiz-adv-x="196" unicode="&apos;" d="M85 450l-10 201h46l-9 -201h-27z"/>
<glyph glyph-name="parenleft" horiz-adv-x="271" unicode="(" d="M92 324q0 -107 38 -191.5t107 -169.5l-21 -18q-172 172 -172 374q0 208 172 380l21 -18q-145 -176 -145 -357z"/>
<glyph glyph-name="parenright" horiz-adv-x="271" unicode=")" d="M38 -37q69 85 107 169.5t38 191.5q0 185 -145 357l21 18q172 -172 172 -380q0 -202 -172 -374z"/>
<glyph glyph-name="asterisk" horiz-adv-x="419" unicode="*" d="M321 393l-38 -30l-70 110l-66 -110l-38 30l76 99l-118 37l14 45l116 -49l-5 125h44l-7 -125l118 49l14 -45l-119 -37z"/>
<glyph glyph-name="plus" horiz-adv-x="495" unicode="+" d="M279 124h-44v165h-169v45h169v176h44v-176h168v-45h-168v-165z"/>
<glyph glyph-name="comma" horiz-adv-x="222" unicode="," d="M157 17q0 -27 -14 -55t-34 -44l-24 13q8 7 23.5 30t16.5 36q-5 -3 -13 -3q-13 0 -23.5 8.5t-10.5 25.5q0 18 10 29t25 11q18 0 31 -14t13 -37z"/>
<glyph glyph-name="hyphen" horiz-adv-x="307" unicode="-" d="M46 334h205v-44h-205v44z"/>
<glyph glyph-name="period" horiz-adv-x="210" unicode="." d="M104 -5q-15 0 -25.5 11t-10.5 26t10.5 26t25.5 11q14 0 24.5 -11t10.5 -26t-10.5 -26t-24.5 -11z"/>
<glyph glyph-name="slash" horiz-adv-x="354" unicode="/" d="M-11 -73h-43l415 791h44z"/>
<glyph glyph-name="zero" d="M291 615q-105 0 -159 -78.5t-54 -211.5q0 -125 55 -207t158 -82t158.5 82t55.5 207q0 129 -55 209.5t-159 80.5zM291 -10q-118 0 -189.5 91t-71.5 244q0 152 72 244t189 92t189.5 -92t72.5 -244t-72.5 -243.5t-189.5 -91.5z" unicode="0"/>
<glyph glyph-name="one" d="M286 0v571h-78v24q62 10 85 56h40v-651h-47z" unicode="1"/>
<glyph glyph-name="two" d="M57 0q6 61 26.5 110.5t58 89t74 66.5t91.5 61q73 44 102 79.5t29 84.5q0 60 -41.5 91.5t-119.5 31.5q-86 0 -163 -59l-30 36q89 70 196 70q98 0 153 -43t55 -123q0 -67 -33.5 -111t-126.5 -100q-100 -60 -148.5 -114.5t-64.5 -124.5h379v-45h-437z" unicode="2"/>
<glyph glyph-name="three" d="M271 -10q-61 0 -117.5 23t-91.5 61l36 32q71 -70 173 -70q179 0 179 146q0 68 -44.5 103t-109.5 35h-25v42h24q59 0 93 36.5t34 89.5q0 55 -39 91t-121 36q-75 0 -136 -55l-35 35q75 66 173 66q97 0 153 -47t56 -118q0 -109 -87 -154q61 -11 87.5 -58.5t26.5 -101.5 q0 -94 -58 -143t-171 -49z" unicode="3"/>
<glyph glyph-name="four" d="M103 201h319v381zM467 0h-45v156h-372v50l372 445h45v-450h89v-45h-89v-156z" unicode="4"/>
<glyph glyph-name="five" d="M273 -10q-109 0 -202 51l22 39q92 -45 183 -45t144.5 45t53.5 127q0 77 -49 117t-125 40q-83 0 -162 -55l-56 23l25 319h368v-45h-328l-20 -255q39 26 75 39t55.5 15t50.5 2q104 0 159 -54t55 -141q0 -110 -66.5 -166t-182.5 -56z" unicode="5"/>
<glyph glyph-name="six" d="M293 350q-83 0 -137 -42.5t-54 -114.5q0 -68 51 -113t135 -45q87 0 138.5 41.5t51.5 117.5q0 78 -51 117t-134 39zM284 -10q-105 0 -167.5 61.5t-62.5 191.5q0 53 11.5 106t39.5 107t69 96t105.5 71.5t144.5 35.5v-41q-89 -8 -147 -39q-62 -33 -110.5 -103t-67.5 -173 q72 89 193 89q44 0 82.5 -10t74 -31t56 -61t20.5 -94q0 -97 -66 -151.5t-175 -54.5z" unicode="6"/>
<glyph glyph-name="seven" d="M263 0h-49q5 300 235 606h-384v45h433l4 -48q-93 -106 -165 -275.5t-74 -327.5z" unicode="7"/>
<glyph glyph-name="eight" d="M295 325q-89 0 -141 -37t-52 -108q0 -72 53.5 -112t140.5 -40q89 0 142 39t53 108q0 73 -51 111.5t-145 38.5zM295 623q-80 0 -121.5 -35.5t-41.5 -94.5q0 -58 47 -92t118 -34q73 0 119 33t46 89q0 59 -43 96.5t-124 37.5zM294 -10q-116 0 -178 49.5t-62 138.5 q0 130 138 172q-108 32 -108 140q0 83 57.5 127t155.5 44q92 0 151.5 -44t59.5 -125q0 -14 -3.5 -30t-13 -39t-32.5 -43t-57 -29q74 -16 105 -65t31 -108q0 -89 -63 -138.5t-181 -49.5z" unicode="8"/>
<glyph glyph-name="nine" d="M286 299q82 0 136.5 42.5t54.5 114.5q0 68 -51 113.5t-135 45.5q-86 0 -138 -42t-52 -117q0 -79 51 -118t134 -39zM295 659q105 0 167.5 -61.5t62.5 -191.5q0 -53 -11.5 -106t-39.5 -107t-69 -96t-105.5 -71.5t-144.5 -35.5v41q89 8 147 39q62 34 111 103.5t66 172.5 q-68 -89 -192 -89q-43 0 -82 10t-74.5 31.5t-56 61t-20.5 93.5q0 97 66 151.5t175 54.5z" unicode="9"/>
<glyph glyph-name="colon" horiz-adv-x="203" unicode=":" d="M104 343q-15 0 -25.5 11t-10.5 26t10.5 26t25.5 11q14 0 24.5 -11t10.5 -26t-10.5 -26t-24.5 -11zM104 -6q-15 0 -25.5 11t-10.5 26t10.5 26t25.5 11q14 0 24.5 -11t10.5 -26t-10.5 -26t-24.5 -11z"/>
<glyph glyph-name="semicolon" horiz-adv-x="222" unicode=";" d="M115 343q-15 0 -25.5 11t-10.5 26t10.5 26t25.5 11q14 0 24.5 -11t10.5 -26t-10.5 -26t-24.5 -11zM157 17q0 -27 -14 -55t-34 -44l-24 13q8 7 23.5 30t16.5 36q-5 -3 -13 -3q-13 0 -23.5 8.5t-10.5 25.5q0 18 10 29t25 11q18 0 31 -14t13 -37z"/>
<glyph glyph-name="semicolon" horiz-adv-x="222" unicode=";" d="M115 343q-15 0 -25.5 11t-10.5 26t10.5 26t25.5 11q14 0 24.5 -11t10.5 -26t-10.5 -26t-24.5 -11zM157 17q0 -27 -14 -55t-34 -44l-24 13q8 7 23.5 30t16.5 36q-5 -3 -13 -3q-13 0 -23.5 8.5t-10.5 25.5q0 18 10 29t25 11q18 0 31 -14t13 -37z"/>
<glyph glyph-name="less" horiz-adv-x="392" unicode="&lt;" d="M44 291v53l317 190v-45l-282 -171l282 -173v-45z"/>
<glyph glyph-name="equal" horiz-adv-x="474" unicode="=" d="M50 251h384v-47h-384v47zM50 413h384v-47h-384v47z"/>
<glyph glyph-name="greater" horiz-adv-x="392" unicode="&gt;" d="M44 100v45l278 173l-278 171v45l317 -190v-53z"/>
<glyph glyph-name="question" horiz-adv-x="465" unicode="?" d="M227 -4q-14 0 -24 10t-10 25q0 14 10 24.5t24 10.5t24 -10.5t10 -24.5q0 -15 -10 -25t-24 -10zM368 369q-6 -6 -30 -30.5t-32 -34.5t-23 -31t-21.5 -42t-7.5 -45h-47q5 78 58 137l69 78q41 47 41 83q0 51 -35.5 91t-114.5 40q-69 0 -103.5 -37t-44.5 -87l-48 -1 q12 79 69 124t137 45q84 0 136.5 -47.5t52.5 -118.5q0 -62 -56 -124z"/>
<glyph glyph-name="at" horiz-adv-x="722" unicode="@" d="M376 453q-46 0 -78.5 -34t-44 -69.5t-11.5 -61.5q0 -48 24 -84.5t81 -36.5q37 0 64.5 19t40.5 47t19 53t6 45t-3.5 38t-13.5 38.5t-31.5 33t-52.5 12.5zM539 136q-11 0 -24 4t-27.5 19.5t-18.5 40.5q-50 -69 -132 -69q-60 0 -97 48t-37 108q0 76 49 138t125 62h4 q87 0 115 -69l10 48h36l-39 -223q-2 -12 -2 -19q0 -22 11 -37t34 -15q41 0 70 34.5t40 77.5t11 86q0 125 -84 195t-198 70q-139 0 -225 -87.5t-86 -227.5q0 -147 88 -234t233 -87q61 0 98 9q18 3 98 30l10 -35q-108 -40 -202 -40q-162 0 -264.5 97t-102.5 260q0 149 97 250 t251 101q138 0 231 -83t93 -221q0 -96 -44.5 -163.5t-120.5 -67.5z"/>
<glyph glyph-name="A" horiz-adv-x="588" unicode="A" d="M296 611l-155 -402h312zM532 0l-62 164h-345l-62 -164h-51l252 651h67l253 -651h-52z"/>
<glyph glyph-name="B" horiz-adv-x="578" unicode="B" d="M113 329v-285h207q153 0 153 142q0 68 -40 105.5t-110 37.5h-210zM113 606v-233h208q60 0 91.5 33.5t31.5 83.5q0 53 -31 84.5t-92 31.5h-208zM66 0v651h252q78 0 125.5 -41t47.5 -115q0 -116 -104 -145q67 -8 100 -51.5t33 -109.5q0 -93 -53.5 -141t-153.5 -48h-247z "/>
<glyph glyph-name="C" horiz-adv-x="522" unicode="C" d="M301 -10q-119 0 -192.5 91.5t-73.5 243.5q0 153 73.5 244.5t192.5 91.5q131 0 197 -94l-44 -28q-54 75 -153 75q-104 0 -160.5 -80.5t-56.5 -208.5t56.5 -208t160.5 -80q102 0 161 77l39 -26q-69 -98 -200 -98z"/>
<glyph glyph-name="D" horiz-adv-x="589" unicode="D" d="M119 606v-561h104q131 0 199.5 76.5t68.5 203.5t-68.5 204t-199.5 77h-104zM73 0v651h150q139 0 228 -81t89 -245q0 -84 -25.5 -148t-70.5 -101.5t-100.5 -56.5t-120.5 -19h-150z"/>
<glyph glyph-name="E" horiz-adv-x="486" unicode="E" d="M66 651h390v-45h-343v-234h199v-45h-199v-282h358v-45h-405v651z"/>
<glyph glyph-name="F" horiz-adv-x="476" unicode="F" d="M127 605v-244h200v-45h-200v-316h-47v651h391v-46h-344z"/>
<glyph glyph-name="G" horiz-adv-x="568" unicode="G" d="M303 -10q-119 0 -192.5 91.5t-73.5 243.5q0 153 73.5 244.5t192.5 91.5q131 0 198 -93l-42 -28q-57 74 -156 74q-104 0 -161 -80.5t-57 -208.5t57 -208t161 -80q92 0 140 55t48 134v32h-111v43h160v-52q0 -122 -66 -190.5t-171 -68.5z"/>
<glyph glyph-name="H" horiz-adv-x="606" unicode="H" d="M507 0v319h-374v-319h-46v651h46v-287h374v287h46v-651h-46z"/>
<glyph glyph-name="I" horiz-adv-x="213" unicode="I" d="M91 0v651h46v-651h-46z"/>
<glyph glyph-name="J" horiz-adv-x="498" unicode="J" d="M230 -10q-149 0 -204 139l48 14q49 -106 159 -106q89 0 129 56t40 166v392h46v-400q0 -135 -53 -198t-165 -63z"/>
<glyph glyph-name="K" horiz-adv-x="577" unicode="K" d="M479 0l-201 381l-158 -206v-175h-46v651h46v-408l310 408h53l-172 -226l225 -425h-57z"/>
<glyph glyph-name="L" horiz-adv-x="462" unicode="L" d="M66 651h47v-605h347v-46h-394v651z"/>
<glyph glyph-name="M" horiz-adv-x="679" unicode="M" d="M574 585l-231 -583l-228 584v-586h-47v651h69l207 -533l208 533h68v-651h-46v585z"/>
<glyph glyph-name="N" horiz-adv-x="583" unicode="N" d="M109 567v-567h-47v651h49l362 -566v566h46v-651h-45z"/>
<glyph glyph-name="O" horiz-adv-x="615" unicode="O" d="M310 615q-103 0 -158 -79t-55 -211q0 -125 55 -207t158 -82t158.5 82t55.5 207q0 129 -55 209.5t-159 80.5zM310 -10q-118 0 -189.5 91t-71.5 244q0 152 72 244t189 92q118 0 190.5 -92t72.5 -244t-72.5 -243.5t-190.5 -91.5z"/>
<glyph glyph-name="P" horiz-adv-x="535" unicode="P" d="M327 607h-212v-298h212q71 0 109 40t38 110q0 71 -40 109.5t-107 38.5zM322 264h-207v-264h-47v651h261q89 0 141 -49t52 -143q0 -95 -53.5 -145t-146.5 -50z"/>
<glyph glyph-name="Q" horiz-adv-x="616" unicode="Q" d="M310 615q-102 0 -157.5 -80t-55.5 -208q0 -129 54.5 -209t158.5 -80q17 0 93 15l-49 78l36 23l47 -76q50 57 68.5 116t18.5 133q0 129 -55 208.5t-159 79.5zM497 -18l-37 -23l-38 60q-66 -26 -112 -26q-118 0 -189.5 91t-71.5 243t71.5 243t189.5 91t190.5 -91t72.5 -243 q0 -173 -114 -284z"/>
<glyph glyph-name="R" horiz-adv-x="550" unicode="R" d="M321 607h-212v-298h212q71 0 109 40t38 110q0 71 -40 109.5t-107 38.5zM457 0l-129 264h-219v-264h-47v651h261q89 0 141 -49t52 -143q0 -147 -135 -188l132 -271h-56z"/>
<glyph glyph-name="S" horiz-adv-x="506" unicode="S" d="M261 -10q-124 0 -207 83l34 33q82 -72 180 -72q80 0 127 32.5t47 100.5q0 56 -42 86.5t-135 60.5q-106 34 -151.5 73t-45.5 107q0 75 55.5 121t144.5 46q103 0 184 -67l-32 -32q-64 55 -160 55q-68 0 -107 -32.5t-39 -85.5q0 -72 91 -111q26 -11 69.5 -25t61.5 -21 q74 -28 113.5 -67t39.5 -112q0 -79 -57.5 -126t-170.5 -47z"/>
<glyph glyph-name="T" horiz-adv-x="467" unicode="T" d="M258 605v-605h-47v605h-201v46h449v-46h-201z"/>
<glyph glyph-name="U" horiz-adv-x="591" unicode="U" d="M531 267q0 -277 -236 -277q-114 0 -172.5 70.5t-58.5 208.5v382h46v-379q0 -110 47 -172.5t139 -62.5q95 0 141.5 60t46.5 169v385h47v-384z"/>
<glyph glyph-name="V" horiz-adv-x="584" unicode="V" d="M267 0l-232 651h51l211 -606l210 606h49l-227 -651h-62z"/>
<glyph glyph-name="W" horiz-adv-x="720" unicode="W" d="M504 0l-140 582l-144 -582h-61l-130 651h45l117 -602l149 602h49l146 -603l119 603h41l-129 -651h-62z"/>
<glyph glyph-name="X" horiz-adv-x="509" unicode="X" d="M417 0l-170 292l-171 -292h-52l197 336l-184 315h55l156 -268l157 268h52l-183 -313l197 -338h-54z"/>
<glyph glyph-name="Y" horiz-adv-x="544" unicode="Y" d="M300 0h-46v260l-243 391h52l214 -347l216 347h50l-243 -391v-260z"/>
<glyph glyph-name="Z" horiz-adv-x="523" unicode="Z" d="M497 45v-45h-467v51l423 555h-404v45h452v-53l-421 -553h417z"/>
<glyph glyph-name="bracketleft" horiz-adv-x="283" unicode="[" d="M65 701h178v-39h-131v-673h131v-39h-178v751z"/>
<glyph glyph-name="backslash" horiz-adv-x="358" unicode="\" d="M313 -84l-291 819h42l291 -819h-42z"/>
<glyph glyph-name="bracketright" horiz-adv-x="294" unicode="]" d="M61 -11h131v673h-131v39h179v-751h-179v39z"/>
<glyph glyph-name="asciicircum" horiz-adv-x="495" unicode="^" d="M251 616l-152 -253h-47l172 287h53l171 -287h-48z"/>
<glyph glyph-name="underscore" horiz-adv-x="500" unicode="_" d="M0 -106v36h500v-36h-500z"/>
<glyph glyph-name="grave" horiz-adv-x="459" unicode="`" d="M238 580l-107 117h64l80 -117h-37z"/>
<glyph glyph-name="a" horiz-adv-x="460" unicode="a" d="M364 211q-31 16 -47.5 24t-44.5 15.5t-57 7.5q-57 0 -96 -30.5t-39 -83.5q0 -56 34.5 -87t94.5 -31q44 0 79.5 20.5t75.5 61.5v103zM364 2v58q-49 -44 -85.5 -57t-80.5 -13q-65 0 -112 37t-47 114q0 69 49 112t131 43t145 -43v83q0 122 -127 122q-60 0 -124 -31l-18 39 q61 32 145 32q168 0 168 -152v-344h-44z"/>
<glyph glyph-name="b" horiz-adv-x="481" unicode="b" d="M249 455q-42 0 -81.5 -26t-65.5 -59v-254q28 -37 67.5 -64t83.5 -27q64 0 103 57.5t39 148.5q0 106 -36 165t-110 59zM253 -10q-42 0 -77 13.5t-73 58.5v-62h-45v639l45 20v-235q49 46 81 58t73 12q78 0 130.5 -63.5t52.5 -196.5q0 -117 -56.5 -180.5t-130.5 -63.5z"/>
<glyph glyph-name="c" horiz-adv-x="409" unicode="c" d="M359 403q-60 54 -125 54q-72 0 -112.5 -60t-40.5 -151t40 -153t116 -62q63 0 119 56l27 -27q-61 -70 -149 -70q-84 0 -141.5 68.5t-57.5 184.5q0 120 57.5 187.5t144.5 67.5q91 0 151 -63z"/>
<glyph glyph-name="d" horiz-adv-x="478" unicode="d" d="M229 455q-74 0 -110 -59t-36 -165q0 -91 37.5 -148.5t104.5 -57.5q43 0 83.5 27t67.5 64v254q-26 33 -66 59t-81 26zM375 62q-66 -72 -159 -72q-74 0 -126.5 62t-52.5 182q0 132 54.5 196t128.5 64q29 0 46 -2.5t46.5 -18t63.5 -45.5v212l43 19v-659h-44v62z"/>
<glyph glyph-name="e" horiz-adv-x="469" unicode="e" d="M236 459q-56 0 -98.5 -52.5t-50.5 -142.5h305q-14 195 -156 195zM86 225q9 -102 52.5 -149t107.5 -47q44 0 102 43l26 -27q-58 -55 -134 -55q-82 0 -140 65.5t-58 188.5q0 116 58.5 185t141.5 69q91 0 141.5 -67.5t50.5 -175.5v-14q0 -11 -1 -16h-347z"/>
<glyph glyph-name="f" horiz-adv-x="266" unicode="f" d="M137 450v-450h-44v450h-65v38h65v64q0 52 28.5 78t75.5 26q19 0 29 -2v-43q-3 1 -7 1t-7 1q-5 1 -15 1q-60 0 -60 -66v-60h89v-38h-89z"/>
<glyph glyph-name="g" horiz-adv-x="473" unicode="g" d="M382 373q-28 37 -67 64t-83 27q-65 0 -104 -57.5t-39 -148.5q0 -105 36 -164t110 -59q42 0 81.5 25.5t65.5 58.5v254zM236 -154q145 53 145 181l1 37q-46 -43 -80.5 -56t-74.5 -13q-78 0 -130.5 63.5t-52.5 197.5q0 117 56.5 180t130.5 63q43 0 77.5 -12.5t72.5 -54.5v57 h46v-452q0 -84 -43 -139.5t-133 -87.5z"/>
<glyph glyph-name="h" horiz-adv-x="464" unicode="h" d="M415 0h-45v281q0 95 -34 135.5t-103 40.5q-66 0 -101.5 -45t-35.5 -120v-292h-44v637l44 20v-229q25 31 55.5 46.5t49.5 17.5t51 2q163 0 163 -209v-285z"/>
<glyph glyph-name="i" horiz-adv-x="208" unicode="i" d="M83 0v489h44v-489h-44zM104 591q-13 0 -22 9t-9 23t9 23t22 9t22 -9t9 -23t-9 -23t-22 -9z"/>
<glyph glyph-name="j" horiz-adv-x="206" unicode="j" d="M129 7q0 -39 -1.5 -61t-9 -48.5t-22.5 -41t-42.5 -26t-67.5 -14.5v42q65 8 82 39t17 106v486h44v-482zM109 592q-13 0 -22 9t-9 22q0 14 9 23t22 9t22 -9t9 -23q0 -13 -9 -22t-22 -9z"/>
<glyph glyph-name="k" horiz-adv-x="420" unicode="k" d="M348 0l-130 290l-115 -153v-137h-44v639l44 19v-449l212 273h52l-116 -155l146 -327h-49z"/>
<glyph glyph-name="l" horiz-adv-x="202" unicode="l" d="M86 0v640l44 21v-661h-44z"/>
<glyph glyph-name="m" horiz-adv-x="743" unicode="m" d="M693 0h-44v280q0 90 -30 135t-95 45q-60 0 -93.5 -47.5t-33.5 -122.5v-290h-44v280q0 182 -126 182q-65 0 -95.5 -47.5t-30.5 -124.5v-290h-43v489h43v-58q43 68 139 68q108 0 143 -102q14 33 34 54.5t43.5 31t42.5 12.5t44 3q65 0 105.5 -52.5t40.5 -161.5v-284z"/>
<glyph glyph-name="n" horiz-adv-x="456" unicode="n" d="M414 0h-46v284q0 177 -136 177q-62 0 -99.5 -46.5t-37.5 -119.5v-295h-45v488h45v-63q23 33 55 50.5t54 20.5t52 3q73 0 115.5 -52t42.5 -159v-288z"/>
<glyph glyph-name="o" horiz-adv-x="494" unicode="o" d="M242 459q-73 0 -114 -60.5t-41 -151.5q0 -98 43 -158t117 -60t116 64t42 151q0 93 -43 154t-120 61zM243 -10q-86 0 -143 69t-57 185q0 119 57.5 186.5t145.5 67.5t146 -68t58 -183q0 -122 -58 -189.5t-149 -67.5z"/>
<glyph glyph-name="p" horiz-adv-x="478" unicode="p" d="M244 34q74 0 110 59.5t36 165.5q0 92 -37 149t-105 57q-44 0 -83.5 -27t-67.5 -65v-254q26 -33 66 -59t81 -26zM98 428q66 72 159 72q73 0 126 -63t53 -181q0 -132 -54.5 -196.5t-128.5 -64.5q-29 0 -46 2.5t-46.5 18t-63.5 45.5v-219l-43 -19v666h44v-61z"/>
<glyph glyph-name="q" horiz-adv-x="487" unicode="q" d="M235 34q42 0 81.5 26t65.5 59v254q-28 38 -67.5 65t-83.5 27q-65 0 -103.5 -58t-38.5 -148q0 -106 36 -165.5t110 -59.5zM231 500q28 0 47 -3t48 -20t55 -49v61h45v-647l-45 -20v243q-51 -45 -82.5 -57.5t-72.5 -12.5q-77 0 -130 63.5t-53 197.5q0 118 56 181t132 63z "/>
<glyph glyph-name="r" horiz-adv-x="330" unicode="r" d="M322 446q-30 15 -69 15q-66 0 -101.5 -45.5t-35.5 -120.5v-295h-44v488h44v-61q24 33 56 50.5t52.5 20t52.5 2.5q27 0 53 -8z"/>
<glyph glyph-name="s" horiz-adv-x="420" unicode="s" d="M210 -10q-87 0 -163 47l19 35q77 -46 143 -46q56 0 92 22t36 69q0 41 -49 72q-17 12 -45 25q-6 2 -22.5 10t-26.5 12q-84 41 -110.5 68t-26.5 75q0 52 40.5 85.5t110.5 33.5q87 0 141 -31l-18 -38q-59 34 -126 34q-44 0 -74 -21t-30 -59q0 -36 27.5 -58t91.5 -49 q89 -37 124 -70t35 -85q0 -66 -47.5 -98.5t-121.5 -32.5z"/>
<glyph glyph-name="t" horiz-adv-x="290" unicode="t" d="M248 10q-32 -17 -68 -17q-89 0 -89 139v319h-74v37h73v151l43 18v-169h122v-37h-122v-305q0 -62 15 -87.5t43 -25.5q20 0 63 15z"/>
<glyph glyph-name="u" horiz-adv-x="490" unicode="u" d="M381 0v63q-24 -32 -55.5 -49.5t-53 -20.5t-52.5 -3q-72 0 -115 52t-43 158v288h45v-284q0 -177 137 -177q63 0 100 46t37 121v294h44v-488h-44z"/>
<glyph glyph-name="v" horiz-adv-x="433" unicode="v" d="M189 0l-170 488h43l155 -443l149 443h44l-166 -488h-55z"/>
<glyph glyph-name="w" horiz-adv-x="609" unicode="w" d="M463 0h-43l-117 437l-118 -437h-41l-124 488h41l105 -418l112 418h51l113 -411l106 411h41z"/>
<glyph glyph-name="x" horiz-adv-x="390" unicode="x" d="M196 209l-123 -209h-47l146 250l-138 238h50l114 -194l114 194h48l-138 -235l147 -253h-53z"/>
<glyph glyph-name="y" horiz-adv-x="439" unicode="y" d="M137 -172l62 171l-178 489h46l154 -430l156 430h46l-240 -660h-46z"/>
<glyph glyph-name="z" horiz-adv-x="440" unicode="z" d="M37 45l303 403h-283v41h328v-46l-302 -401h302v-42h-348v45z"/>
<glyph glyph-name="braceleft" horiz-adv-x="277" unicode="{" d="M208 -51q-38 0 -62 30t-24 85v97q0 135 -73 145v30q73 10 73 148v98q0 55 23.5 84.5t63.5 29.5h45v-33h-42q-52 0 -52 -106v-90q0 -61 -19.5 -98t-41.5 -48v-3q24 -7 42.5 -43t18.5 -102v-84q0 -107 54 -107h40v-33h-46z"/>
<glyph glyph-name="bar" horiz-adv-x="208" unicode="|" d="M91 748h46v-871h-46v871z"/>
<glyph glyph-name="braceright" horiz-adv-x="277" unicode="}" d="M95 -51h-46v33h40q54 0 54 107v84q0 68 18 103t43 42v3q-22 10 -41.5 47t-19.5 99v90q0 106 -52 106h-42v33h45q40 0 63.5 -29.5t23.5 -84.5v-98q0 -138 73 -148v-30q-73 -10 -73 -145v-97q0 -55 -24 -85t-62 -30z"/>
<glyph glyph-name="asciitilde" horiz-adv-x="497" unicode="~" d="M366 263q-43 0 -107 37l-30 18t-42.5 22.5t-33.5 7.5q-29 0 -46 -14.5t-34 -44.5l-31 26q19 38 49 59.5t63 21.5q35 0 106 -38q9 -5 26.5 -15.5t28 -16.5t25.5 -11.5t27 -5.5q8 0 14.5 1t12.5 4l10 5t9.5 8t8 8t7.5 10t6 9.5t7 11.5t6 11l30 -23q-41 -91 -112 -91z"/>
<glyph glyph-name="nbspace" horiz-adv-x="233" unicode=" "/>
<glyph glyph-name="sterling" horiz-adv-x="520" unicode="£" d="M75 51q45 52 67 103t22 117v12h-89v36h85q-3 20 -9 38t-16.5 41t-14.5 35q-11 30 -11 58q0 68 50.5 118t129.5 50q186 0 209 -169h-47q-27 125 -156 125q-18 0 -38 -4.5t-44 -16t-39.5 -35.5t-15.5 -58q0 -36 20 -85q21 -53 29 -97h153v-36h-150q0 -69 -18.5 -124.5 t-68.5 -113.5h381v-45h-429v51z"/>
<glyph glyph-name="yen" horiz-adv-x="526" unicode="¥" d="M480 424v-48h-126l-49 -87h175v-48h-192v-241h-46v241h-187v48h171l-50 87h-121v48h94l-130 227h54l193 -339l194 339h52l-130 -227h98z"/>
<glyph glyph-name="brokenbar" horiz-adv-x="494" unicode="¦" d="M242 459q-73 0 -114 -60.5t-41 -151.5q0 -98 43 -158t117 -60t116 64t42 151q0 93 -43 154t-120 61zM243 -10q-86 0 -143 69t-57 185q0 119 57.5 186.5t145.5 67.5t146 -68t58 -183q0 -122 -58 -189.5t-149 -67.5zM328 576q-16 0 -33.5 6t-42 18t-30.5 14q-18 7 -29 7h-3 q-31 -1 -50 -33l-25 17q26 51 74 52q22 0 52 -14q4 -2 24 -12.5t34.5 -16t27.5 -5.5q10 0 17 3t14.5 12t9 12t9.5 16l24 -16q-32 -60 -73 -60z"/>
<glyph glyph-name="section" horiz-adv-x="563" unicode="§" d="M285 404q-56 17 -97 35q-55 -30 -55 -88q0 -76 123 -113q8 -3 33 -11t39 -13q42 -14 72 -32q46 33 46 92q0 50 -37 76t-124 54zM433 157q38 -44 38 -102q0 -70 -50 -111t-155 -41q-55 0 -106.5 21.5t-78.5 52.5l29 27q71 -63 161 -63q158 0 158 117q0 50 -38.5 78 t-121.5 52q-103 33 -140.5 65t-37.5 93q0 66 60 114q-43 42 -43 102q0 66 50 106.5t130 40.5q91 0 166 -59l-28 -28q-61 49 -145 49q-61 0 -96 -28.5t-35 -76.5q0 -75 122 -113q7 -2 29.5 -9t33 -10.5t28 -10t31 -13.5t26.5 -15q67 -45 67 -125q0 -67 -54 -113z"/>
<glyph glyph-name="dieresis" horiz-adv-x="462" unicode="¨" d="M148 596q-13 0 -22 9.5t-9 22.5q0 14 9 23t22 9t22 -9t9 -23q0 -13 -9 -22.5t-22 -9.5zM344 596q-13 0 -22 9.5t-9 22.5q0 14 9 23t22 9t22 -9t9 -23q0 -13 -9 -22.5t-22 -9.5z"/>
<glyph glyph-name="copyright" horiz-adv-x="741" unicode="©" d="M379 125q-71 0 -115 55t-44 145q0 91 44 146t115 55q76 0 120 -59l-31 -21q-35 45 -89 45q-59 0 -91.5 -45.5t-32.5 -120.5q0 -74 32.5 -119.5t91.5 -45.5q55 0 94 46l28 -19q-47 -62 -122 -62zM375 624q-122 0 -203.5 -86t-81.5 -213q0 -126 82 -212t203 -86 q122 0 203.5 86t81.5 212q0 128 -81.5 213.5t-203.5 85.5zM375 -10q-137 0 -229.5 96t-92.5 239q0 144 92.5 240t229.5 96t229.5 -96t92.5 -240q0 -143 -92.5 -239t-229.5 -96z"/>
<glyph glyph-name="guillemotleft" horiz-adv-x="438" unicode="«" d="M50 245l133 205h46l-126 -205l126 -205h-46zM220 245l133 205h46l-126 -205l126 -205h-46z"/>
<glyph glyph-name="sfthyphen" horiz-adv-x="307" unicode="­" d="M46 334h205v-44h-205v44z"/>
<glyph glyph-name="registered" horiz-adv-x="523" unicode="®" d="M221 560v-92h65q43 0 43 46q0 21 -12 33.5t-31 12.5h-65zM284 441h-63v-90h-28v235h93q33 0 52 -18.5t19 -53.5q0 -46 -43 -68l45 -95h-32zM265 642q-69 0 -115.5 -49.5t-46.5 -123.5q0 -75 46.5 -124.5t115.5 -49.5t116 49.5t47 124.5q0 74 -47 123.5t-116 49.5z M265 267q-80 0 -134.5 58t-54.5 144q0 85 54.5 143t134.5 58q81 0 135 -57.5t54 -143.5t-54 -144t-135 -58z"/>
<glyph glyph-name="degree" horiz-adv-x="431" unicode="°" d="M211 613q-41 0 -68.5 -29t-27.5 -71q0 -43 27.5 -72.5t68.5 -29.5t68.5 29.5t27.5 72.5q0 42 -27.5 71t-68.5 29zM211 375q-56 0 -93.5 39.5t-37.5 98.5q0 57 37.5 96.5t93.5 39.5q55 0 92.5 -39.5t37.5 -96.5q0 -59 -37.5 -98.5t-92.5 -39.5z"/>
<glyph glyph-name="plusminus" horiz-adv-x="233" unicode="±"/>
<glyph glyph-name="twosuperior" horiz-adv-x="522" unicode="²" d="M279 -193q-34 0 -70 15l12 29q31 -14 58 -14q19 0 36 12.5t17 34.5t-20 32.5t-42 10.5l-10 9l17 55q-109 10 -175.5 100.5t-66.5 233.5q0 153 73.5 244.5t192.5 91.5q131 0 197 -94l-44 -28q-54 75 -153 75q-104 0 -160.5 -80.5t-56.5 -208.5t56.5 -208t160.5 -80 q102 0 161 77l39 -26q-67 -93 -192 -98l-10 -39q40 -9 55.5 -26.5t15.5 -42.5q0 -27 -24.5 -51t-66.5 -24z"/>
<glyph glyph-name="threesuperior" horiz-adv-x="583" unicode="³" d="M375 688q-16 0 -33 6t-41.5 17.5t-30.5 14.5q-19 7 -30 7h-3q-30 -1 -49 -33l-26 17q28 51 75 52q22 0 52 -14q4 -2 24 -12.5t34.5 -16t27.5 -5.5q10 0 17 3t14.5 12t9 12t9.5 16l24 -16q-32 -60 -74 -60zM109 569v-569h-47v651h49l362 -568v568h46v-651h-45z"/>
<glyph glyph-name="mu" horiz-adv-x="474" unicode="µ" d="M375 0v63q-24 -32 -55.5 -49.5t-53 -20.5t-52.5 -3q-72 0 -113 48v-196l-45 -20v667l45 -1v-284q0 -177 137 -177q63 0 100 46t37 121v294h44v-488h-44z"/>
<glyph glyph-name="mu" horiz-adv-x="474" unicode="μ" d="M375 0v63q-24 -32 -55.5 -49.5t-53 -20.5t-52.5 -3q-72 0 -113 48v-196l-45 -20v667l45 -1v-284q0 -177 137 -177q63 0 100 46t37 121v294h44v-488h-44z"/>
<glyph glyph-name="periodcentered" horiz-adv-x="203" unicode="·" d="M104 343q-15 0 -25.5 11t-10.5 26t10.5 26t25.5 11q14 0 24.5 -11t10.5 -26t-10.5 -26t-24.5 -11z"/>
<glyph glyph-name="periodcentered" horiz-adv-x="203" unicode="⋅" d="M104 343q-15 0 -25.5 11t-10.5 26t10.5 26t25.5 11q14 0 24.5 -11t10.5 -26t-10.5 -26t-24.5 -11z"/>
<glyph glyph-name="onesuperior" horiz-adv-x="606" unicode="¹" d="M305 611l-155 -402h312zM541 0l-62 164h-345l-62 -164h-51l252 651h67l253 -651h-52zM308 803q-22 0 -37 -15.5t-15 -38.5t15 -39t37 -16t36.5 16t14.5 39t-14.5 38.5t-36.5 15.5zM308 669q-33 0 -54.5 22.5t-21.5 57.5q0 33 22 56t54 23t54 -23t22 -56 q0 -35 -21.5 -57.5t-54.5 -22.5z"/>
<glyph glyph-name="guillemotright" horiz-adv-x="438" unicode="»" d="M61 40l125 205l-125 205h45l133 -205l-133 -205h-45zM231 40l126 205l-126 205h45l133 -205l-133 -205h-45z"/>
<glyph glyph-name="onehalf" horiz-adv-x="779" unicode="½" d="M137 594h-46v23q37 5 52 33h30v-390h-36v334zM158 0h-43l385 651h43zM424 0q8 73 45.5 117t106.5 84q43 25 60 45t17 46q0 67 -92 67q-51 0 -99 -36l-24 29q59 45 125 45q61 0 95 -26t34 -76q0 -42 -21 -69t-77 -59q-57 -34 -85.5 -64t-38.5 -67h226v-36h-272z"/>
<glyph glyph-name="Adieresis" horiz-adv-x="606" unicode="Ä" d="M305 611l-155 -402h312zM541 0l-62 164h-345l-62 -164h-51l252 651h67l253 -651h-52zM215 710q-13 0 -22 9t-9 23t9 23t22 9t22 -9t9 -23t-9 -23t-22 -9zM411 710q-13 0 -22 9t-9 23t9 23t22 9t22 -9t9 -23t-9 -23t-22 -9z"/>
<glyph glyph-name="Eacute" horiz-adv-x="486" unicode="É" d="M253 673h-37l80 117h64zM66 0v651h390v-45h-343v-234h199v-45h-199v-282h358v-45h-405z"/>
<glyph glyph-name="Odieresis" horiz-adv-x="615" unicode="Ö" d="M217 710q-13 0 -22 9t-9 23t9 23t22 9t22 -9t9 -23t-9 -23t-22 -9zM413 710q-13 0 -22 9t-9 23t9 23t22 9t22 -9t9 -23t-9 -23t-22 -9zM310 615q-103 0 -158 -79t-55 -211q0 -125 55 -207t158 -82t158.5 82t55.5 207q0 129 -55 209.5t-159 80.5zM310 -10 q-118 0 -189.5 91t-71.5 244q0 152 72 244t189 92q118 0 190.5 -92t72.5 -244t-72.5 -243.5t-190.5 -91.5z"/>
<glyph glyph-name="Udieresis" horiz-adv-x="591" unicode="Ü" d="M198 710q-13 0 -22 9t-9 23t9 23t22 9t22 -9t9 -23t-9 -23t-22 -9zM394 710q-13 0 -22 9t-9 23t9 23t22 9t22 -9t9 -23t-9 -23t-22 -9zM531 267q0 -277 -236 -277q-114 0 -172.5 70.5t-58.5 208.5v382h46v-379q0 -110 47 -172.5t139 -62.5q95 0 141.5 60t46.5 169v385h47 v-384z"/>
<glyph glyph-name="germandbls" horiz-adv-x="491" unicode="ß" d="M263 -11q-30 0 -50 7l14 38q17 -6 36 -6q60 0 98.5 48t38.5 106q0 80 -44.5 126t-119.5 46h-7v40q55 0 91.5 33.5t36.5 89.5q0 47 -31 84t-87 37q-57 0 -91 -43t-34 -101v-497l-43 -21v513q0 78 47.5 132t123.5 54q70 0 115 -47.5t45 -114.5q0 -40 -25.5 -78.5 t-71.5 -57.5q63 -14 102 -65t39 -123q0 -84 -53 -142t-130 -58z"/>
<glyph glyph-name="agrave" horiz-adv-x="460" unicode="à" d="M131 697h64l80 -117h-37zM364 211q-31 16 -47.5 24t-44.5 15.5t-57 7.5q-57 0 -96 -30.5t-39 -83.5q0 -56 34.5 -87t94.5 -31q44 0 79.5 20.5t75.5 61.5v103zM364 2v58q-49 -44 -85.5 -57t-80.5 -13q-65 0 -112 37t-47 114q0 69 49 112t131 43t145 -43v83q0 122 -127 122 q-60 0 -124 -31l-18 39q61 32 145 32q168 0 168 -152v-344h-44z"/>
<glyph glyph-name="acircumflex" horiz-adv-x="460" unicode="â" d="M367 576h-39l-86 74l-85 -74h-40l98 111h53zM364 211q-31 16 -47.5 24t-44.5 15.5t-57 7.5q-57 0 -96 -30.5t-39 -83.5q0 -56 34.5 -87t94.5 -31q44 0 79.5 20.5t75.5 61.5v103zM364 2v58q-49 -44 -85.5 -57t-80.5 -13q-65 0 -112 37t-47 114q0 69 49 112t131 43t145 -43 v83q0 122 -127 122q-60 0 -124 -31l-18 39q61 32 145 32q168 0 168 -152v-344h-44z"/>
<glyph glyph-name="adieresis" horiz-adv-x="460" unicode="ä" d="M148 596q-13 0 -22 9.5t-9 22.5q0 14 9 23t22 9t22 -9t9 -23q0 -13 -9 -22.5t-22 -9.5zM344 596q-13 0 -22 9.5t-9 22.5q0 14 9 23t22 9t22 -9t9 -23q0 -13 -9 -22.5t-22 -9.5zM364 211q-31 16 -47.5 24t-44.5 15.5t-57 7.5q-57 0 -96 -30.5t-39 -83.5q0 -56 34.5 -87 t94.5 -31q44 0 79.5 20.5t75.5 61.5v103zM364 2v58q-49 -44 -85.5 -57t-80.5 -13q-65 0 -112 37t-47 114q0 69 49 112t131 43t145 -43v83q0 122 -127 122q-60 0 -124 -31l-18 39q61 32 145 32q168 0 168 -152v-344h-44z"/>
<glyph glyph-name="ccedilla" horiz-adv-x="409" unicode="ç" d="M218 -193q-34 0 -70 15l12 29q31 -14 58 -14q19 0 36 12.5t17 34.5t-20 32.5t-42 10.5l-10 9l16 55q-78 9 -129 76t-51 176q0 120 57.5 187.5t144.5 67.5q91 0 151 -63l-29 -32q-60 54 -125 54q-72 0 -112.5 -60t-40.5 -151t40 -153t116 -62q63 0 119 56l27 -27 q-56 -65 -135 -70l-10 -39q40 -9 55.5 -26.5t15.5 -42.5q0 -27 -24.5 -51t-66.5 -24z"/>
<glyph glyph-name="egrave" horiz-adv-x="469" unicode="è" d="M236 459q-56 0 -98.5 -52.5t-50.5 -142.5h305q-14 195 -156 195zM86 225q9 -102 52.5 -149t107.5 -47q44 0 102 43l26 -27q-58 -55 -134 -55q-82 0 -140 65.5t-58 188.5q0 116 58.5 185t141.5 69q91 0 141.5 -67.5t50.5 -175.5v-14q0 -11 -1 -16h-347zM141 697h64 l80 -117h-37z"/>
<glyph glyph-name="eacute" horiz-adv-x="469" unicode="é" d="M236 459q-56 0 -98.5 -52.5t-50.5 -142.5h305q-14 195 -156 195zM433 225h-347q9 -102 52.5 -149t107.5 -47q44 0 102 43l26 -27q-58 -55 -134 -55q-82 0 -140 65.5t-58 188.5q0 116 58.5 185t141.5 69q91 0 141.5 -67.5t50.5 -175.5v-14q0 -11 -1 -16zM240 580h-37 l79 117h65z"/>
<glyph glyph-name="ecircumflex" horiz-adv-x="469" unicode="ê" d="M236 459q-56 0 -98.5 -52.5t-50.5 -142.5h305q-14 195 -156 195zM86 225q9 -102 52.5 -149t107.5 -47q44 0 102 43l26 -27q-58 -55 -134 -55q-82 0 -140 65.5t-58 188.5q0 116 58.5 185t141.5 69q91 0 141.5 -67.5t50.5 -175.5v-14q0 -11 -1 -16h-347zM367 576h-39 l-86 74l-85 -74h-40l98 111h53z"/>
<glyph glyph-name="edieresis" horiz-adv-x="469" unicode="ë" d="M236 459q-56 0 -98.5 -52.5t-50.5 -142.5h305q-14 195 -156 195zM86 225q9 -102 52.5 -149t107.5 -47q44 0 102 43l26 -27q-58 -55 -134 -55q-82 0 -140 65.5t-58 188.5q0 116 58.5 185t141.5 69q91 0 141.5 -67.5t50.5 -175.5v-14q0 -11 -1 -16h-347zM148 596 q-13 0 -22 9.5t-9 22.5q0 14 9 23t22 9t22 -9t9 -23q0 -13 -9 -22.5t-22 -9.5zM344 596q-13 0 -22 9.5t-9 22.5q0 14 9 23t22 9t22 -9t9 -23q0 -13 -9 -22.5t-22 -9.5z"/>
<glyph glyph-name="icircumflex" horiz-adv-x="208" unicode="î" d="M129 687l99 -111h-39l-86 74l-85 -74h-40l98 111h53zM83 0v489h44v-489h-44z"/>
<glyph glyph-name="idieresis" horiz-adv-x="208" unicode="ï" d="M13 596q-13 0 -22 9.5t-9 22.5q0 14 9 23t22 9t22 -9t9 -23q0 -13 -9 -22.5t-22 -9.5zM209 596q-13 0 -22 9.5t-9 22.5q0 14 9 23t22 9t22 -9t9 -23q0 -13 -9 -22.5t-22 -9.5zM83 0v489h44v-489h-44z"/>
<glyph glyph-name="ocircumflex" horiz-adv-x="494" unicode="ô" d="M242 459q-73 0 -114 -60.5t-41 -151.5q0 -98 43 -158t117 -60t116 64t42 151q0 93 -43 154t-120 61zM243 -10q-86 0 -143 69t-57 185q0 119 57.5 186.5t145.5 67.5t146 -68t58 -183q0 -122 -58 -189.5t-149 -67.5zM373 576h-39l-86 74l-85 -74h-40l98 111h53z"/>
<glyph glyph-name="odieresis" horiz-adv-x="494" unicode="ö" d="M242 459q-73 0 -114 -60.5t-41 -151.5q0 -98 43 -158t117 -60t116 64t42 151q0 93 -43 154t-120 61zM243 -10q-86 0 -143 69t-57 185q0 119 57.5 186.5t145.5 67.5t146 -68t58 -183q0 -122 -58 -189.5t-149 -67.5zM152 596q-13 0 -22 9.5t-9 22.5q0 14 9 23t22 9t22 -9 t9 -23q0 -13 -9 -22.5t-22 -9.5zM348 596q-13 0 -22 9.5t-9 22.5q0 14 9 23t22 9t22 -9t9 -23q0 -13 -9 -22.5t-22 -9.5z"/>
<glyph glyph-name="ugrave" horiz-adv-x="490" unicode="ù" d="M137 697h64l80 -117h-37zM381 0v63q-24 -32 -55.5 -49.5t-53 -20.5t-52.5 -3q-72 0 -115 52t-43 158v288h45v-284q0 -177 137 -177q63 0 100 46t37 121v294h44v-488h-44z"/>
<glyph glyph-name="ucircumflex" horiz-adv-x="490" unicode="û" d="M367 576h-39l-86 74l-85 -74h-40l98 111h53zM381 0v63q-24 -32 -55.5 -49.5t-53 -20.5t-52.5 -3q-72 0 -115 52t-43 158v288h45v-284q0 -177 137 -177q63 0 100 46t37 121v294h44v-488h-44z"/>
<glyph glyph-name="udieresis" horiz-adv-x="490" unicode="ü" d="M148 596q-13 0 -22 9.5t-9 22.5q0 14 9 23t22 9t22 -9t9 -23q0 -13 -9 -22.5t-22 -9.5zM344 596q-13 0 -22 9.5t-9 22.5q0 14 9 23t22 9t22 -9t9 -23q0 -13 -9 -22.5t-22 -9.5zM381 0v63q-24 -32 -55.5 -49.5t-53 -20.5t-52.5 -3q-72 0 -115 52t-43 158v288h45v-284 q0 -177 137 -177q63 0 100 46t37 121v294h44v-488h-44z"/>
<glyph glyph-name="oe" horiz-adv-x="841" unicode="œ" d="M599 460q-60 0 -100 -52.5t-49 -143.5h303q-14 196 -154 196zM449 225v-8q11 -99 53.5 -145t106.5 -46q60 0 109 35l24 -27q-57 -44 -139 -44q-59 0 -105.5 32t-70.5 95q-26 -62 -74 -94.5t-110 -32.5q-86 0 -143 69t-57 185q0 119 57.5 186.5t145.5 67.5q61 0 108.5 -33 t73.5 -95q24 62 71 95t107 33q92 0 141.5 -67.5t49.5 -175.5v-14q0 -11 -1 -16h-347zM242 457q-73 0 -113 -59.5t-40 -150.5q0 -97 42.5 -156.5t115.5 -59.5q72 0 114 64t42 149q0 93 -42 153t-119 60z"/>
<glyph glyph-name="tonos" horiz-adv-x="459" unicode="΄" d="M179 580h-37l79 117h65z"/>
<glyph glyph-name="dieresistonos" horiz-adv-x="462" unicode="΅" d="M217 580h-37l79 117h65zM148 596q-13 0 -22 9.5t-9 22.5q0 14 9 23t22 9t22 -9t9 -23q0 -13 -9 -22.5t-22 -9.5zM344 596q-13 0 -22 9.5t-9 22.5q0 14 9 23t22 9t22 -9t9 -23q0 -13 -9 -22.5t-22 -9.5z"/>
<glyph glyph-name="Alphatonos" horiz-adv-x="606" unicode="Ά" d="M305 611l-155 -402h312zM541 0l-62 164h-345l-62 -164h-51l252 651h67l253 -651h-52zM75 547h-37l79 117h65z"/>
<glyph glyph-name="Epsilontonos" horiz-adv-x="486" unicode="Έ" d="M-75 547h-37l80 117h64zM66 0v651h390v-45h-343v-234h199v-45h-199v-282h358v-45h-405z"/>
<glyph glyph-name="Etatonos" horiz-adv-x="606" unicode="Ή" d="M-53 547h-37l80 117h64zM507 0v319h-374v-319h-46v651h46v-287h374v287h46v-651h-46z"/>
<glyph glyph-name="Iotatonos" horiz-adv-x="213" unicode="Ί" d="M-43 547h-37l80 117h64zM91 0v651h46v-651h-46z"/>
<glyph glyph-name="Omicrontonos" horiz-adv-x="615" unicode="Ό" d="M-12 547h-36l79 117h65zM310 615q-103 0 -158 -79t-55 -211q0 -125 55 -207t158 -82t158.5 82t55.5 207q0 129 -55 209.5t-159 80.5zM310 -10q-118 0 -189.5 91t-71.5 244q0 152 72 244t189 92q118 0 190.5 -92t72.5 -244t-72.5 -243.5t-190.5 -91.5z"/>
<glyph glyph-name="Upsilontonos" horiz-adv-x="544" unicode="Ύ" d="M-123 547h-37l80 117h64zM300 260v-260h-46v260l-243 391h52l214 -347l216 347h50z"/>
<glyph glyph-name="Omegatonos" horiz-adv-x="637" unicode="Ώ" d="M-12 547h-36l79 117h65zM374 0v54q72 33 113.5 108.5t41.5 178.5q0 121 -55.5 197t-158.5 76q-101 0 -158 -78t-57 -195q0 -100 43 -182.5t116 -105.5v-53h-210v45h141q-74 37 -105.5 119t-31.5 177q0 142 72.5 231t189.5 89q118 0 190 -88t72 -232q0 -57 -12.5 -109.5 t-46 -104.5t-85.5 -82h152v-45h-211z"/>
<glyph glyph-name="iotadieresistonos" horiz-adv-x="208" unicode="ΐ" d="M78 580h-37l79 117h65zM9 596q-13 0 -22 9.5t-9 22.5q0 14 9 23t22 9t22 -9t9 -23q0 -13 -9 -22.5t-22 -9.5zM205 596q-13 0 -22 9.5t-9 22.5q0 14 9 23t22 9t22 -9t9 -23q0 -13 -9 -22.5t-22 -9.5zM83 0v489h44v-489h-44z"/>
<glyph glyph-name="Alpha" horiz-adv-x="606" unicode="Α" d="M305 611l-155 -402h312zM541 0l-62 164h-345l-62 -164h-51l252 651h67l253 -651h-52z"/>
<glyph glyph-name="Beta" horiz-adv-x="578" unicode="Β" d="M113 329v-285h207q153 0 153 142q0 68 -40 105.5t-110 37.5h-210zM113 606v-233h208q60 0 91.5 33.5t31.5 83.5q0 53 -31 84.5t-92 31.5h-208zM66 0v651h252q78 0 125.5 -41t47.5 -115q0 -116 -104 -145q67 -8 100 -51.5t33 -109.5q0 -93 -53.5 -141t-153.5 -48h-247z "/>
<glyph glyph-name="Gamma" horiz-adv-x="462" unicode="Γ" d="M113 606v-606h-47v651h391v-45h-344z"/>
<glyph glyph-name="Delta" horiz-adv-x="616" unicode="Δ" d="M314 612l-211 -568h423zM36 0l245 651h69l246 -651h-560z"/>
<glyph glyph-name="Epsilon" horiz-adv-x="486" unicode="Ε" d="M66 651h390v-45h-343v-234h199v-45h-199v-282h358v-45h-405v651z"/>
<glyph glyph-name="Zeta" horiz-adv-x="523" unicode="Ζ" d="M497 45v-45h-467v51l423 555h-404v45h452v-53l-421 -553h417z"/>
<glyph glyph-name="Eta" horiz-adv-x="606" unicode="Η" d="M507 0v319h-374v-319h-46v651h46v-287h374v287h46v-651h-46z"/>
<glyph glyph-name="Theta" horiz-adv-x="625" unicode="Θ" d="M92 314q11 -133 69 -205t154 -72q98 0 156 72t69 205h-448zM315 614q-91 0 -149 -66t-74 -189h448q-17 124 -74.5 189.5t-150.5 65.5zM315 -10q-118 0 -194 92.5t-76 242.5t76 243t194 93q119 0 195.5 -92.5t76.5 -243.5q0 -150 -76.5 -242.5t-195.5 -92.5z"/>
<glyph glyph-name="Iota" horiz-adv-x="213" unicode="Ι" d="M91 0v651h46v-651h-46z"/>
<glyph glyph-name="Kappa" horiz-adv-x="577" unicode="Κ" d="M479 0l-201 381l-158 -206v-175h-46v651h46v-408l310 408h53l-172 -226l225 -425h-57z"/>
<glyph glyph-name="Lambda" horiz-adv-x="584" unicode="Λ" d="M507 0l-210 606l-211 -606h-51l232 651h62l227 -651h-49z"/>
<glyph glyph-name="Mu" horiz-adv-x="679" unicode="Μ" d="M574 585l-231 -583l-228 584v-586h-47v651h69l207 -533l208 533h68v-651h-46v585z"/>
<glyph glyph-name="Nu" horiz-adv-x="583" unicode="Ν" d="M109 567v-567h-47v651h49l362 -566v566h46v-651h-45z"/>
<glyph glyph-name="Xi" horiz-adv-x="492" unicode="Ξ" d="M216 327h-121v45h121v234h-175v45h411v-45h-190v-234h136v-45h-136v-282h205v-45h-441v45h190v282z"/>
<glyph glyph-name="Omicron" horiz-adv-x="615" unicode="Ο" d="M310 615q-103 0 -158 -79t-55 -211q0 -125 55 -207t158 -82t158.5 82t55.5 207q0 129 -55 209.5t-159 80.5zM310 -10q-118 0 -189.5 91t-71.5 244q0 152 72 244t189 92q118 0 190.5 -92t72.5 -244t-72.5 -243.5t-190.5 -91.5z"/>
<glyph glyph-name="Pi" horiz-adv-x="616" unicode="Π" d="M491 0v606h-374v-606h-46v651h466v-651h-46z"/>
<glyph glyph-name="Rho" horiz-adv-x="535" unicode="Ρ" d="M327 607h-212v-298h212q71 0 109 40t38 110q0 71 -40 109.5t-107 38.5zM322 264h-207v-264h-47v651h261q89 0 141 -49t52 -143q0 -95 -53.5 -145t-146.5 -50z"/>
<glyph glyph-name="Sigma" horiz-adv-x="541" unicode="Σ" d="M507 45v-45h-467v51l220 288l-197 259v53h452v-45h-404l203 -267l-224 -294h417z"/>
<glyph glyph-name="Tau" horiz-adv-x="467" unicode="Τ" d="M258 605v-605h-47v605h-201v46h449v-46h-201z"/>
<glyph glyph-name="Upsilon" horiz-adv-x="544" unicode="Υ" d="M300 0h-46v260l-243 391h52l214 -347l216 347h50l-243 -391v-260z"/>
<glyph glyph-name="Phi" horiz-adv-x="666" unicode="Φ" d="M311 571q-104 -12 -159.5 -77.5t-55.5 -164.5q0 -94 56.5 -162t158.5 -80v484zM357 86q105 12 161.5 80t56.5 163q0 96 -56.5 163t-161.5 79v-485zM357 0h-46v43q-121 12 -191.5 91t-70.5 195q0 109 71.5 191t190.5 94v37h46v-37q122 -12 194 -91t72 -194 q0 -117 -71.5 -195.5t-194.5 -90.5v-43z"/>
<glyph glyph-name="Chi" horiz-adv-x="509" unicode="Χ" d="M417 0l-170 292l-171 -292h-52l197 336l-184 315h55l156 -268l157 268h52l-183 -313l197 -338h-54z"/>
<glyph glyph-name="Psi" horiz-adv-x="637" unicode="Ψ" d="M585 394q0 -136 -61 -203t-183 -75v-116h-47v116q-119 9 -177.5 77.5t-58.5 202.5v255h46v-252q0 -214 190 -236v488h47v-487q197 16 197 229v258h47v-257z"/>
<glyph glyph-name="Omega" horiz-adv-x="637" unicode="Ω" d="M374 54q72 33 113.5 108.5t41.5 178.5q0 121 -55.5 197t-158.5 76q-101 0 -158 -78t-57 -195q0 -100 43 -182.5t116 -105.5v-53h-210v45h141q-74 37 -105.5 119t-31.5 177q0 142 72.5 231t189.5 89q118 0 190 -88t72 -232q0 -57 -12.5 -109.5t-46 -104.5t-85.5 -82h152 v-45h-211v54z"/>
<glyph glyph-name="Iotadieresis" horiz-adv-x="213" unicode="Ϊ" d="M17 710q-13 0 -22 9t-9 23t9 23t22 9t22 -9t9 -23t-9 -23t-22 -9zM212 710q-13 0 -22 9t-9 23t9 23t22 9q14 0 22.5 -9t8.5 -23t-8.5 -23t-22.5 -9zM91 0v651h46v-651h-46z"/>
<glyph glyph-name="Upsilondieresis" horiz-adv-x="544" unicode="Ϋ" d="M184 710q-13 0 -22 9t-9 23t9 23t22 9t22 -9t9 -23t-9 -23t-22 -9zM380 710q-13 0 -22 9t-9 23t9 23t22 9t22 -9t9 -23t-9 -23t-22 -9zM300 0h-46v260l-243 391h52l214 -347l216 347h50l-243 -391v-260z"/>
<glyph glyph-name="alphatonos" horiz-adv-x="487" unicode="ά" d="M244 580h-37l79 117h65zM235 34q42 0 81.5 26t65.5 59v254q-28 38 -67.5 65t-83.5 27q-65 0 -103.5 -58t-38.5 -148q0 -106 36 -165.5t110 -59.5zM231 500q28 0 47 -3t48 -20t55 -49v61h45v-489h-45v65q-51 -45 -82.5 -57.5t-72.5 -12.5q-77 0 -130 63.5t-53 197.5 q0 118 56 181t132 63z"/>
<glyph glyph-name="epsilontonos" horiz-adv-x="422" unicode="έ" d="M229 580h-37l79 117h65zM242 -10q-159 0 -186 119q-2 8 -2 26q0 41 22.5 73t67.5 42q-42 11 -62 42.5t-20 66.5q0 57 52.5 97.5t122.5 40.5q91 0 155 -56l-30 -33q-57 48 -115 48q-61 0 -100.5 -30.5t-39.5 -60.5q0 -93 110 -93h65v-39h-65q-42 0 -80.5 -22.5 t-38.5 -69.5q0 -50 41 -80t106 -30q62 0 128 60l27 -28q-70 -73 -158 -73z"/>
<glyph glyph-name="etatonos" horiz-adv-x="456" unicode="ή" d="M206 580h-37l79 117h65zM414 0h-46v284q0 177 -136 177q-62 0 -99.5 -46.5t-37.5 -119.5v-295h-45v488h45v-63q23 33 55 50.5t54 20.5t52 3q73 0 115.5 -52t42.5 -159v-288z"/>
<glyph glyph-name="iotatonos" horiz-adv-x="208" unicode="ί" d="M119 580h-37l79 117h65zM83 0v489h44v-489h-44z"/>
<glyph glyph-name="upsilondieresistonos" horiz-adv-x="475" unicode="ΰ" d="M422 208q0 -218 -181 -218q-184 0 -184 218v280h45v-276q0 -92 32.5 -138t104.5 -46q75 0 106.5 45.5t31.5 138.5v261l45 20v-285zM179 628q0 -13 -9 -22.5t-22 -9.5t-22 9.5t-9 22.5q0 14 9 23t22 9t22 -9t9 -23zM324 697l-107 -117h-37l79 117h65zM375 628 q0 -13 -9 -22.5t-22 -9.5t-22 9.5t-9 22.5q0 14 9 23t22 9t22 -9t9 -23z"/>
<glyph glyph-name="alpha" horiz-adv-x="487" unicode="α" d="M235 34q42 0 81.5 26t65.5 59v254q-28 38 -67.5 65t-83.5 27q-65 0 -103.5 -58t-38.5 -148q0 -106 36 -165.5t110 -59.5zM231 500q28 0 47 -3t48 -20t55 -49v61h45v-489h-45v65q-51 -45 -82.5 -57.5t-72.5 -12.5q-77 0 -130 63.5t-53 197.5q0 118 56 181t132 63z"/>
<glyph glyph-name="beta" horiz-adv-x="491" unicode="β" d="M197 345v36h11q61 0 101 29t40 93q0 47 -31 83t-87 36q-57 0 -91 -42t-34 -99v-367q69 -83 149 -83q60 0 98.5 45t38.5 101q0 73 -45.5 120.5t-118.5 47.5h-31zM255 -8q-81 0 -149 71v-199l-43 -20v632q0 77 47.5 129.5t123.5 52.5q70 0 115 -47t45 -111q0 -41 -25 -79.5 t-74 -55.5q68 -14 105.5 -62t37.5 -120q0 -81 -53 -136t-130 -55z"/>
<glyph glyph-name="gamma" horiz-adv-x="423" unicode="γ" d="M235 -158l-44 -20v229l-173 437h43l154 -385l149 385h44l-173 -434v-212z"/>
<glyph glyph-name="delta" horiz-adv-x="474" unicode="δ" d="M203 411q-99 50 -99 124q0 52 41.5 86.5t110.5 34.5q86 0 140 -32l-17 -37q-54 31 -126 31q-45 0 -75.5 -20.5t-30.5 -58.5q0 -31 27 -54.5t94 -56.5q81 -39 125 -91.5t44 -129.5q0 -96 -58 -156t-142 -60q-86 0 -140 58t-54 155q0 71 41 130.5t119 76.5zM236 379 q-69 0 -108 -53.5t-39 -118.5q0 -70 41 -123.5t111 -53.5t110 55.5t40 118.5q0 34 -16 73t-53.5 70.5t-85.5 31.5z"/>
<glyph glyph-name="epsilon" horiz-adv-x="422" unicode="ε" d="M242 -10q-159 0 -186 119q-2 8 -2 26q0 41 22.5 73t67.5 42q-42 11 -62 42.5t-20 66.5q0 57 52.5 97.5t122.5 40.5q91 0 155 -56l-30 -33q-57 48 -115 48q-61 0 -100.5 -30.5t-39.5 -60.5q0 -93 110 -93h65v-39h-65q-42 0 -80.5 -22.5t-38.5 -69.5q0 -50 41 -80t106 -30 q62 0 128 60l27 -28q-70 -73 -158 -73z"/>
<glyph glyph-name="zeta" horiz-adv-x="314" unicode="ζ" d="M66 191q0 -47 18 -79t49.5 -45.5t60 -18t64.5 -4.5h68v-182l-43 -19v158h-40q-95 0 -157 44t-62 141q0 92 86 215t195 211h-252v39h311v-36q-104 -83 -201 -210t-97 -214z"/>
<glyph glyph-name="eta" horiz-adv-x="456" unicode="η" d="M414 0h-46v284q0 177 -136 177q-62 0 -99.5 -46.5t-37.5 -119.5v-295h-45v488h45v-63q23 33 55 50.5t54 20.5t52 3q73 0 115.5 -52t42.5 -159v-288z"/>
<glyph glyph-name="theta" horiz-adv-x="505" unicode="θ" d="M93 321q4 -146 42 -217.5t117 -71.5q151 0 159 289h-318zM247 620q-136 0 -154 -261h318q-8 122 -50 191.5t-114 69.5zM248 -11q-91 0 -145.5 88t-54.5 245q0 163 55.5 249.5t147.5 86.5t148 -87.5t56 -244.5q0 -165 -56 -251t-151 -86z"/>
<glyph glyph-name="iota" horiz-adv-x="208" unicode="ι" d="M83 0v489h44v-489h-44z"/>
<glyph glyph-name="kappa" horiz-adv-x="431" unicode="κ" d="M350 0l-130 293l-115 -155v-138h-44v489h44v-278l212 277h52l-116 -157l146 -331h-49z"/>
<glyph glyph-name="lambda" horiz-adv-x="418" unicode="λ" d="M210 388l-154 -387h-46l178 446q-1 2 -6.5 19.5t-6.5 20t-6.5 17t-8.5 19t-9.5 15.5t-12 17t-14.5 14.5t-19 15.5q-28 21 -73 38l16 38q45 -16 73 -32.5t49.5 -44t34 -55t33.5 -82.5l174 -446h-46z"/>
<glyph glyph-name="nu" horiz-adv-x="433" unicode="ν" d="M189 0l-170 488h43l155 -443l149 443h44l-166 -488h-55z"/>
<glyph glyph-name="xi" horiz-adv-x="372" unicode="ξ" d="M351 568q-58 51 -126 51q-53 0 -92 -35t-39 -81q0 -67 41 -99.5t93 -32.5h98v-40h-90q-67 0 -110.5 -37.5t-43.5 -98.5q0 -41 13 -71t31 -45t43 -24t42 -11t35 -2h119v-180l-44 -20v159h-86q-79 0 -137 46.5t-58 143.5q0 47 27 94t78 67q-93 31 -93 145q0 73 52 117.5 t124 44.5q88 0 148 -61z"/>
<glyph glyph-name="omicron" horiz-adv-x="494" unicode="ο" d="M242 459q-73 0 -114 -60.5t-41 -151.5q0 -98 43 -158t117 -60t116 64t42 151q0 93 -43 154t-120 61zM243 -10q-86 0 -143 69t-57 185q0 119 57.5 186.5t145.5 67.5t146 -68t58 -183q0 -122 -58 -189.5t-149 -67.5z"/>
<glyph glyph-name="pi" horiz-adv-x="497" unicode="π" d="M393 0v451h-281v-451h-46v489h372v-489h-45z"/>
<glyph glyph-name="rho" horiz-adv-x="477" unicode="ρ" d="M251 462q-74 0 -111 -58t-37 -165v-118q66 -87 150 -87q69 0 106 57t37 148q0 223 -145 223zM263 -6q-44 0 -67 8q-40 12 -93 58v-218l-44 -20v415q0 134 52 197.5t138 63.5q85 0 138.5 -61.5t53.5 -194.5q0 -117 -55 -182.5t-123 -65.5z"/>
<glyph glyph-name="sigma1" horiz-adv-x="420" unicode="ς" d="M210 -10q-87 0 -163 47l19 35q77 -46 143 -46q56 0 92 22t36 69q0 41 -49 72q-17 12 -45 25q-6 2 -22.5 10t-26.5 12q-84 41 -110.5 68t-26.5 75q0 52 40.5 85.5t110.5 33.5q87 0 141 -31l-18 -38q-59 34 -126 34q-44 0 -74 -21t-30 -59q0 -36 27.5 -58t91.5 -49 q89 -37 124 -70t35 -85q0 -66 -47.5 -98.5t-121.5 -32.5z"/>
<glyph glyph-name="sigma" horiz-adv-x="534" unicode="σ" d="M247 445q-73 0 -113.5 -55t-40.5 -143q0 -97 42.5 -156t115.5 -59q72 0 114 64t42 148q0 90 -42.5 145.5t-117.5 55.5zM361 450q56 -48 74 -96t18 -107q0 -122 -58 -189.5t-148 -67.5q-86 0 -142.5 69t-56.5 185q0 118 55.5 181t143.5 63h242v-38h-128z"/>
<glyph glyph-name="tau" horiz-adv-x="308" unicode="τ" d="M285 451h-137v-305q0 -62 15 -87.5t43 -25.5q20 0 63 15l-6 -38q-32 -17 -68 -17q-89 0 -89 139v319h-96v37h275v-37z"/>
<glyph glyph-name="upsilon" horiz-adv-x="475" unicode="υ" d="M241 -10q-184 0 -184 218v280h45v-276q0 -92 32.5 -138t104.5 -46q75 0 106.5 45.5t31.5 138.5v261l45 20v-285q0 -218 -181 -218z"/>
<glyph glyph-name="phi" horiz-adv-x="598" unicode="φ" d="M320 38q22 1 42.5 5t49.5 18t49.5 35.5t35.5 61.5t15 93q0 91 -50 147.5t-142 60.5v-421zM320 -159l-44 -19v176q-106 4 -169 72t-63 184q0 78 34 136.5t88 86.5l9 -43q-33 -19 -59 -64t-26 -119q0 -61 19.5 -105t51 -65.5t59.5 -31.5t56 -11v460h73q87 0 148 -67 t61 -177q0 -116 -65 -185t-173 -71v-157z"/>
<glyph glyph-name="chi" horiz-adv-x="423" unicode="χ" d="M208 209l-123 -209h-47l146 250l-138 238h50l114 -194l113 194h49l-139 -235l148 -253h-53z"/>
<glyph glyph-name="psi" horiz-adv-x="546" unicode="ψ" d="M294 -158l-46 -20v172q-201 19 -201 216v277h45v-273q0 -88 39 -131.5t117 -50.5v508l46 21v-529q157 11 157 182v258l45 20v-282q0 -200 -202 -216v-152z"/>
<glyph glyph-name="omega" horiz-adv-x="731" unicode="ω" d="M503 -7q-46 0 -78 17.5t-54 67.5q-29 -48 -59.5 -66.5t-73.5 -18.5q-73 0 -127.5 71.5t-54.5 191.5q0 86 44.5 153.5t109.5 85.5l17 -39q-57 -19 -91 -72.5t-34 -127.5q0 -94 39.5 -158.5t100.5 -64.5q57 0 82.5 44t25.5 113v113h43v-113q0 -69 25.5 -113t81.5 -44 q61 0 100 64t39 159q0 73 -33 124t-89 74l18 39q69 -23 110 -86.5t41 -150.5q0 -121 -53.5 -192t-129.5 -71z"/>
<glyph glyph-name="iotadieresis" horiz-adv-x="208" unicode="ϊ" d="M13 596q-13 0 -22 9.5t-9 22.5q0 14 9 23t22 9t22 -9t9 -23q0 -13 -9 -22.5t-22 -9.5zM209 596q-13 0 -22 9.5t-9 22.5q0 14 9 23t22 9t22 -9t9 -23q0 -13 -9 -22.5t-22 -9.5zM83 0v489h44v-489h-44z"/>
<glyph glyph-name="upsilondieresis" horiz-adv-x="475" unicode="ϋ" d="M141 596q-13 0 -22 9.5t-9 22.5q0 14 9 23t22 9t22 -9t9 -23q0 -13 -9 -22.5t-22 -9.5zM337 596q-13 0 -22 9.5t-9 22.5q0 14 9 23t22 9t22 -9t9 -23q0 -13 -9 -22.5t-22 -9.5zM241 -10q-184 0 -184 218v280h45v-276q0 -92 32.5 -138t104.5 -46q75 0 106.5 45.5 t31.5 138.5v261l45 20v-285q0 -218 -181 -218z"/>
<glyph glyph-name="omicrontonos" horiz-adv-x="494" unicode="ό" d="M242 459q-73 0 -114 -60.5t-41 -151.5q0 -98 43 -158t117 -60t116 64t42 151q0 93 -43 154t-120 61zM243 -10q-86 0 -143 69t-57 185q0 119 57.5 186.5t145.5 67.5t146 -68t58 -183q0 -122 -58 -189.5t-149 -67.5zM245 580h-37l79 117h65z"/>
<glyph glyph-name="upsilontonos" horiz-adv-x="475" unicode="ύ" d="M229 580h-37l79 117h65zM241 -10q-184 0 -184 218v280h45v-276q0 -92 32.5 -138t104.5 -46q75 0 106.5 45.5t31.5 138.5v261l45 20v-285q0 -218 -181 -218z"/>
<glyph glyph-name="omegatonos" horiz-adv-x="731" unicode="ώ" d="M369 580h-37l79 117h65zM503 -7q-46 0 -78 17.5t-54 67.5q-29 -48 -59.5 -66.5t-73.5 -18.5q-73 0 -127.5 71.5t-54.5 191.5q0 86 44.5 153.5t109.5 85.5l17 -39q-57 -19 -91 -72.5t-34 -127.5q0 -94 39.5 -158.5t100.5 -64.5q57 0 82.5 44t25.5 113v113h43v-113 q0 -69 25.5 -113t81.5 -44q61 0 100 64t39 159q0 73 -33 124t-89 74l18 39q69 -23 110 -86.5t41 -150.5q0 -121 -53.5 -192t-129.5 -71z"/>
<glyph glyph-name="endash" horiz-adv-x="500" unicode="–" d="M30 347h440v-37h-440v37z"/>
<glyph glyph-name="emdash" horiz-adv-x="1000" unicode="—" d="M30 347h940v-37h-940v37z"/>
<glyph glyph-name="quoteleft" horiz-adv-x="193" unicode="‘" d="M133 529q0 -18 -10 -29t-25 -11q-18 0 -30.5 14t-12.5 38q0 28 14.5 59.5t34.5 45.5l22 -13q-13 -9 -26.5 -32.5t-13.5 -40.5q5 3 13 3q13 0 23.5 -8.5t10.5 -25.5z"/>
<glyph glyph-name="quotedblleft" horiz-adv-x="311" unicode="“" d="M133 529q0 -18 -10 -29t-25 -11q-18 0 -30.5 14t-12.5 38q0 28 14.5 59.5t34.5 45.5l22 -13q-13 -9 -26.5 -32.5t-13.5 -40.5q5 3 13 3q13 0 23.5 -8.5t10.5 -25.5zM248 529q0 -18 -10.5 -29t-25.5 -11q-18 0 -30.5 14t-12.5 38q0 26 15.5 58t34.5 47l22 -13 q-12 -8 -25.5 -32t-15.5 -41q6 3 14 3q13 0 23.5 -8.5t10.5 -25.5z"/>
<glyph glyph-name="quotedblright" horiz-adv-x="311" unicode="”" d="M169 607q0 18 10 28.5t25 10.5q18 0 31 -13.5t13 -37.5q0 -28 -14.5 -60.5t-35.5 -45.5l-22 14q13 9 26.5 32.5t13.5 40.5q-4 -3 -13 -3q-13 0 -23.5 8.5t-10.5 25.5zM55 607q0 18 10 28.5t25 10.5q18 0 30.5 -13.5t12.5 -37.5q0 -26 -15.5 -57.5t-34.5 -48.5l-22 14 q13 11 26 33.5t15 39.5q-6 -3 -14 -3q-13 0 -23 8.5t-10 25.5z"/>
<glyph glyph-name="dagger" horiz-adv-x="501" unicode="†" d="M285 -93h-45v481h-189v39h189v224h45v-224h188v-39h-188v-481z"/>
<glyph glyph-name="ellipsis" horiz-adv-x="651" unicode="…" d="M560 -5q-14 0 -25 11t-11 26t11 26t25 11q15 0 25.5 -11t10.5 -26t-10.5 -26t-25.5 -11zM325 -5q-14 0 -24.5 11t-10.5 26t10.5 26t24.5 11q15 0 25.5 -11t10.5 -26t-10.5 -26t-25.5 -11zM104 -5q-15 0 -25.5 11t-10.5 26t10.5 26t25.5 11q14 0 24.5 -11t10.5 -26 t-10.5 -26t-24.5 -11z"/>
<glyph glyph-name="perthousand" horiz-adv-x="1272" unicode="‰" d="M1074 333q-53 0 -82.5 -43t-29.5 -108q0 -70 31 -112.5t84 -42.5t84 45.5t31 107.5q0 67 -31 110t-87 43zM1075 -8q-66 0 -109.5 51t-43.5 137q0 87 44 137.5t111 50.5t110.5 -50t43.5 -136q0 -89 -44 -139.5t-112 -50.5zM179 622q-53 0 -82.5 -43t-29.5 -108 q0 -71 31 -113t85 -42q52 0 83 45.5t31 107.5q0 67 -31 110t-87 43zM695 333q-53 0 -82.5 -43t-29.5 -108q0 -70 31 -112.5t84 -42.5t83.5 45.5t30.5 107.5q0 66 -31 109.5t-86 43.5zM180 281q-66 0 -109.5 51t-43.5 137q0 87 44 137.5t111 50.5t110.5 -50t43.5 -136 q0 -89 -44 -139.5t-112 -50.5zM225 0l385 651h43l-385 -651h-43zM695 -8q-65 0 -108.5 51.5t-43.5 136.5q0 87 44 137.5t111 50.5t110.5 -50t43.5 -136q0 -89 -44 -139.5t-113 -50.5z"/>
<glyph glyph-name="Euro" horiz-adv-x="529" unicode="€" d="M338 -10q-96 0 -162 62t-92 178h-73l14 45h53q-2 34 -2 41v39h-65l14 45h56q23 126 90 193.5t167 67.5q116 0 179 -74l-34 -40q-53 67 -145 67q-165 0 -208 -214h321l-14 -45h-312v-40q0 -8 2 -40h324l-14 -45h-304q53 -193 205 -193q94 0 150 65l33 -33 q-68 -79 -183 -79z"/>
<glyph glyph-name="trademark" horiz-adv-x="762" unicode="™" d="M205 290h-36v325h-120v35h275v-35h-119v-325zM668 601l-134 -307l-132 307v-311h-35v361h51l117 -273l117 273h51v-361h-35v311z"/>
</font>
</defs>
</svg>
